<svg width="150" height="150" viewBox="0 0 150 150" fill="none" xmlns="http://www.w3.org/2000/svg">
<g clip-path="url(#clip0_1_564)">
<path d="M51.6955 40.4339C53.1586 45.7985 51.3704 47.2616 52.6709 49.7001C55.5971 59.454 88.2726 66.7694 99.4895 50.1878C97.9289 47.8469 99.9772 44.8232 99.9772 43.8478C99.0018 44.3355 98.8068 44.7256 98.0265 44.3355C97.2461 43.9453 97.8639 41.5719 98.5141 39.9462C96.9535 39.9462 96.8885 38.9708 97.5388 36.5324C94.4175 37.7028 95.4254 34.0939 95.588 30.1923C94.8077 31.3628 93.3121 31.1677 92.6618 31.1677C91.8815 31.1677 91.3613 26.9411 91.1987 24.8277C90.711 25.6405 89.5406 27.2662 88.7603 27.2662C87.98 27.2662 86.1592 23.6898 85.3464 21.9016C84.8587 22.7144 83.7858 24.34 83.3956 24.34C83.0055 24.34 81.77 21.0887 80.9572 19.4631C79.4941 22.3892 78.031 22.3892 77.0556 22.3892C76.2753 22.3892 75.1048 19.4631 74.6172 18C74.1295 18.9754 73.0565 21.0237 72.6664 21.4139C72.2762 21.804 70.2279 19.6256 69.2525 18.4877C69.09 19.7882 68.5697 22.3892 67.7894 22.3892C67.0091 22.3892 65.8387 21.4139 65.351 20.9262C65.351 21.7065 64.8633 22.8769 64.3756 22.8769C61.4494 22.8769 62.4248 22.3892 60.9617 21.9016C60.596 23.3646 61.4494 28.2416 59.9863 28.7293C58.8159 29.1194 57.5479 28.2416 57.0602 27.7539C57.0602 30.0298 57.4503 35.1668 57.0602 35.557C56.6701 35.9471 54.9468 34.0939 54.134 33.1185C52.9635 38.9708 54.7883 38.8518 55.6949 40.665C53.8817 40.665 54.134 41.897 51.6955 40.4339Z" fill="#F5D76E" stroke="#F5A623" stroke-linecap="round"/>
<path d="M0.639999 84.3264C8.05295 64.0383 38.5176 51.1632 52.8232 47.2617C55.5543 48.042 54.9366 50.1878 54.2863 51.1632C41.4437 62.3802 13.9053 85.887 6.49233 90.1787C-0.920621 94.4704 -0.497953 88.0654 0.639999 84.3264Z" fill="url(#paint0_linear_1_564)" stroke="#89619E" stroke-width="0.537938" stroke-linecap="round"/>
<path d="M7.80309 107.385C20.6782 69.9306 46.0058 54.3894 57.0602 51.3007C60.9617 50.5204 59.9863 53.2514 59.0109 54.7145C49.7448 71.2961 20.4831 101.045 14.1431 107.385C9.07109 112.457 7.80309 109.499 7.80309 107.385Z" fill="url(#paint1_linear_1_564)" stroke="#89619E" stroke-width="0.537938" stroke-linecap="round"/>
<path d="M25.5269 123.618C24.5515 123.13 23.2397 124.105 22.6007 123.13C16.803 114.281 34.2538 88.2586 48.4485 68.996C52.4033 63.6293 55.4666 58.2617 58.69 54.3652C63.3719 51.2439 64.8675 54.6903 65.0301 56.8036C65.3552 56.8036 63.6645 61.8757 54.3008 82.1637C50.482 90.4378 45.6942 97.3356 41.6208 104.11C35.7061 113.946 30.7571 122.494 27.9653 126.056C27.185 126.446 26.99 124.593 25.5269 123.618Z" fill="url(#paint2_linear_1_564)" stroke="#89619E" stroke-width="0.537938" stroke-linecap="round"/>
<path d="M57.1993 75.056C61.491 68.0332 63.8644 60.1 64.5147 57.0113C67.6359 53.1098 69.8794 56.0359 70.3671 57.499C70.8548 69.2037 69.3917 81.396 67.441 86.2729C65.4902 91.1499 60.1256 117.485 58.1748 125.288C56.224 133.092 56.224 132.116 55.2486 132.604C54.4683 132.994 53.7855 132.116 53.2978 131.141C52.3225 132.604 49.884 133.092 49.3963 132.116C44.5194 116.022 51.8347 83.8345 57.1993 75.056Z" fill="url(#paint3_linear_1_564)" stroke="#89619E" stroke-width="0.537938" stroke-linecap="round"/>
<path d="M141.121 93.3626C138.39 92.9725 112.997 69.1405 100.642 57.2733C89.7178 49.4702 99.0165 50.7707 105.031 52.3964C125.515 57.2733 148.924 77.7564 149.899 87.0226C150.875 96.2888 144.535 93.8503 141.121 93.3626Z" fill="url(#paint4_linear_1_564)" stroke="#89619E" stroke-width="0.537938" stroke-linecap="round"/>
<path d="M126.379 112.44C117.795 102.296 101.994 72.7742 95.1665 59.2814C88.5338 49.1373 96.6296 53.7542 101.506 57.3306C127.842 78.3014 129.793 101.223 131.744 110.002C133.304 117.024 128.817 114.553 126.379 112.44Z" fill="url(#paint5_linear_1_564)" stroke="#89619E" stroke-width="0.537938" stroke-linecap="round"/>
<path d="M109.367 119.459C98.0528 102.292 91.9728 73.2908 90.3472 60.9358C88.0063 50.7918 92.9482 56.0589 95.7118 59.9605C114.244 84.8328 115.707 108.73 115.22 117.996C114.829 125.409 111.155 122.06 109.367 119.459Z" fill="url(#paint6_linear_1_564)" stroke="#89619E" stroke-width="0.537938" stroke-linecap="round"/>
<path d="M81.0421 79.9862C76.7504 61.6489 80.2293 56.7394 82.5052 56.5769C85.6265 55.0162 88.6827 57.2271 89.8206 58.5276C96.8434 70.2323 100.875 94.617 102.013 105.346C102.501 112.174 102.501 132.169 100.55 131.194C97.136 127.292 95.673 129.731 92.7468 127.292C80.5545 88.7647 86.4068 102.908 81.0421 79.9862Z" fill="url(#paint7_linear_1_564)" stroke="#89619E" stroke-width="0.537938" stroke-linecap="round"/>
<path d="M68.413 80.5C67.6326 69.1855 70.3637 56.603 72.8022 56.1153C75.2406 55.6276 78.1668 57.5784 79.1422 60.0169L80.6053 68.3077C83.7265 95.2284 81.9058 119.516 80.6053 128.294C79.9551 130.082 77.5816 131.415 73.2899 122.442C67.9253 111.225 69.3883 94.6431 68.413 80.5Z" fill="url(#paint8_linear_1_564)" stroke="#89619E" stroke-width="0.537938" stroke-linecap="round"/>
</g>
<defs>
<linearGradient id="paint0_linear_1_564" x1="27.4218" y1="47.2617" x2="27.4218" y2="91.6056" gradientUnits="userSpaceOnUse">
<stop stop-color="#CEA5E4"/>
<stop offset="1" stop-color="#725B7E"/>
</linearGradient>
<linearGradient id="paint1_linear_1_564" x1="33.8432" y1="51.1632" x2="33.8432" y2="110.186" gradientUnits="userSpaceOnUse">
<stop stop-color="#CEA5E4"/>
<stop offset="1" stop-color="#725B7E"/>
</linearGradient>
<linearGradient id="paint2_linear_1_564" x1="43.2627" y1="53.1139" x2="43.2627" y2="126.109" gradientUnits="userSpaceOnUse">
<stop stop-color="#CEA5E4"/>
<stop offset="1" stop-color="#725B7E"/>
</linearGradient>
<linearGradient id="paint3_linear_1_564" x1="59.1278" y1="55.0647" x2="59.1278" y2="132.699" gradientUnits="userSpaceOnUse">
<stop stop-color="#CEA5E4"/>
<stop offset="1" stop-color="#725B7E"/>
</linearGradient>
<linearGradient id="paint4_linear_1_564" x1="122.794" y1="51.1632" x2="122.794" y2="94.0144" gradientUnits="userSpaceOnUse">
<stop stop-color="#CEA5E4"/>
<stop offset="1" stop-color="#725B7E"/>
</linearGradient>
<linearGradient id="paint5_linear_1_564" x1="112.364" y1="53.1139" x2="112.364" y2="114.647" gradientUnits="userSpaceOnUse">
<stop stop-color="#CEA5E4"/>
<stop offset="1" stop-color="#725B7E"/>
</linearGradient>
<linearGradient id="paint6_linear_1_564" x1="102.514" y1="55.0647" x2="102.514" y2="122.515" gradientUnits="userSpaceOnUse">
<stop stop-color="#CEA5E4"/>
<stop offset="1" stop-color="#725B7E"/>
</linearGradient>
<linearGradient id="paint7_linear_1_564" x1="90.6452" y1="56.0401" x2="90.6452" y2="131.228" gradientUnits="userSpaceOnUse">
<stop stop-color="#CEA5E4"/>
<stop offset="1" stop-color="#725B7E"/>
</linearGradient>
<linearGradient id="paint8_linear_1_564" x1="75.3029" y1="56.0401" x2="75.3029" y2="129.595" gradientUnits="userSpaceOnUse">
<stop stop-color="#CEA5E4"/>
<stop offset="1" stop-color="#725B7E"/>
</linearGradient>
<clipPath id="clip0_1_564">
<rect width="150" height="150" fill="white"/>
</clipPath>
</defs>
</svg>
