<svg width="467" height="503" viewBox="0 0 467 503" fill="none" xmlns="http://www.w3.org/2000/svg">
<path d="M264.259 24.9765C253.123 8.31646 249.533 4.66345 241.473 1.78845C226.792 -3.44855 217.754 2.21045 201.453 26.8445C184.502 52.4615 184.385 60.2845 200.717 75.9585L209.171 84.0724V90.2255V96.3774L204.098 92.8875C182.228 77.8445 160.293 96.5084 167.163 124.313C170.101 136.201 170.405 135.991 159.171 129.857C152.244 126.075 144.229 126.354 137.127 130.625L131.671 133.905L127.431 130.939C112.988 120.836 92.0416 132.382 91.7746 150.594C91.6356 160.079 88.5396 157.892 83.6395 144.844C76.5585 125.989 66.5086 117.64 53.3356 119.667C0.0565681 127.866 -8.86143 138.977 9.08757 174.792C24.3406 205.227 34.4206 211.788 53.6706 203.81C66.6916 198.414 79.1516 200.533 72.0626 206.939C60.1066 217.743 64.1975 238.337 79.7945 245.854L84.5636 248.153L80.6175 249.797C64.3985 256.555 60.1205 277.358 72.3455 290.014L75.4086 293.184L71.5395 294.259C65.6595 295.891 63.9245 295.633 55.3065 291.844C34.4075 282.655 24.7706 288.283 9.27355 318.725C-0.765445 338.446 -1.55844 341.913 1.75256 351.629C5.59656 362.913 12.6836 366.915 37.3526 371.734C66.4086 377.41 73.8236 374.111 82.2626 351.753C84.0056 347.133 86.6116 342.114 88.0516 340.599L90.6706 337.844L91.2335 344.844C92.7865 364.131 109.876 374.657 126.153 366.353L130.129 364.325L134.69 367.807C143.617 374.621 151.77 374.795 162.315 368.396C169.961 363.757 170.243 364.182 167.145 375.666C163.659 388.583 165.583 397.695 173.333 404.982C182.834 413.915 192.758 414.325 205.712 406.319L209.171 404.181V411.656V419.132L201.298 426.23C188.601 437.676 185.57 449.885 192.564 461.416C213.438 495.836 219.997 502.371 233.617 502.322C246.043 502.277 250.716 498.419 264.794 476.584C282.487 449.141 282.616 442.534 265.767 426.629L258.171 419.459V411.312V403.166L261.421 405.91C283.033 424.153 308 402.331 299.248 372.847C296.593 363.905 297.356 361.248 301.236 365.922C307.994 374.065 324.272 374.859 333.095 367.476L336.52 364.611L340.755 366.484C358.078 374.147 375.393 363.302 375.601 344.657C375.639 341.185 375.908 338.344 376.198 338.344C378.482 338.344 381.503 342.698 384.617 350.478C393.014 371.458 402.601 377.12 421.858 372.471C426.705 371.301 434.496 369.699 439.171 368.91C468.578 363.947 474.088 348.361 457.577 316.846C442.311 287.708 432.196 282.166 411.545 291.623C402.907 295.578 400.337 295.995 395.33 294.25L392.192 293.156L395.66 288.923C406.613 275.556 402.865 257.699 387.551 250.286L383.019 248.092L386.866 246.369C402.056 239.569 406.307 221.981 396.04 208.416C391.397 202.281 391.45 202.791 395.32 201.442C400.237 199.728 403.532 200.111 411.671 203.344C432.702 211.698 441.718 205.949 458.027 173.782C473.995 142.289 467.922 130.592 431.632 122.938C400.209 116.31 392.948 119.617 383.171 145.007C380.509 151.922 377.814 156.346 376.266 156.343C375.939 156.342 375.643 153.755 375.609 150.593C375.412 132.477 354.878 120.993 340.132 130.751L335.813 133.609L329.918 130.368C321.505 125.743 313.025 126.166 304.811 131.62C301.726 133.668 298.97 135.344 298.686 135.344C297.55 135.344 298.266 126.361 299.671 122.998C309.734 98.9144 279.715 76.5614 260.921 94.1454L258.171 96.7184V90.3675V84.0164L265.626 76.7295C282.654 60.0835 282.446 52.1835 264.259 24.9765Z" fill="#088FD2"/>
<path d="M218.251 26.3276C221.569 20.8176 224.281 17.5646 226.751 16.1326C234.701 11.5226 238.32 13.7366 248.161 29.2306C252.441 35.9696 257.544 43.7286 259.502 46.4746C265.264 54.5546 264.221 57.1916 251.105 67.7016C243.422 73.8576 242.879 76.2426 242.879 103.83C242.879 133.256 242.733 133.007 253.187 121.38C272.568 99.8246 275.384 98.2876 282.479 105.383C290.084 112.988 288.994 115.083 259.849 148.905C244.911 166.24 242.879 169.537 242.879 176.433C242.879 182.466 245.02 182.48 250.663 176.483C257.047 169.699 263.881 170.354 264.092 177.77C264.154 179.958 261.65 184.202 254.165 194.59C244.978 207.341 241.879 212.066 241.879 213.325C241.879 213.956 254.696 220.983 255.845 220.983C256.339 220.983 259.088 216.596 261.955 211.233C278.432 180.413 279.357 179.208 285.029 181.185C289.973 182.908 290.659 187.098 287.469 196.076C283.536 207.147 286.183 209.431 294.288 201.96C301.729 195.102 304.287 185.648 306.407 157.178C308.02 135.523 325.318 134.37 327.427 155.777C328.328 164.916 328.346 164.911 337.327 153.051C345.88 141.758 345.814 141.815 350.443 141.684C354.965 141.556 359.145 144.751 360.274 149.201C361.304 153.257 360.693 154.495 349.629 170.754C338.679 186.846 339.466 187.102 365.572 175.947C389.861 165.568 390.846 164.675 396.368 148.042C401.075 133.865 403.997 132.397 419.805 136.265C425.621 137.688 432.854 139.159 435.879 139.535C451.027 141.415 454.078 147.741 446.322 161.187C443.816 165.532 439.81 173.299 437.421 178.447C430.891 192.516 427.231 193.99 413.879 187.929C401.934 182.505 399.16 182.856 376.879 192.609C365.925 197.404 358.379 201.261 358.379 202.066C358.379 202.831 363.317 205.652 369.668 208.516C385.74 215.763 389.473 220.849 384.401 228.589C379.998 235.31 373.378 235.277 354.879 228.44C319.29 215.289 313.099 214.322 305.653 220.758C303.31 222.783 303.875 223.349 310.724 225.846C321.139 229.644 324.531 234.395 320.224 239.154C318.11 241.49 295.739 241.703 280.421 239.533C268.527 237.849 268.484 237.867 269.161 244.424C269.454 247.266 269.283 251.791 268.78 254.481C267.485 261.414 267.904 261.583 281.594 259.647C319.251 254.322 335.506 261.727 310.629 272.875C302.737 276.411 302.389 277.405 308.129 280.01C315.438 283.328 318.606 282.698 341.379 273.401C352.929 268.686 365.159 263.927 368.557 262.827L374.735 260.826L379.293 262.842C392.569 268.714 388.639 278.923 370.047 286.862C355.451 293.094 355.349 292.638 373.108 300.5C400.007 312.409 400.827 312.516 414.107 305.858C427.883 298.95 431.922 300.524 438.951 315.538C441.628 321.257 445.632 328.808 447.849 332.317C456.073 345.34 452.744 350.384 433.879 353.48C428.654 354.337 421.256 355.965 417.438 357.098C405.186 360.732 401.68 358.56 396.761 344.29C391.658 329.487 390.519 328.549 365.44 318.494C353.923 313.877 344.136 310.324 343.69 310.6C341.327 312.06 342.625 314.435 356.469 333.983C362.057 341.873 362.18 346.537 356.925 351.233C350.774 356.73 346.758 354.812 336.255 341.361C328.248 331.106 327.419 331.148 327.248 341.811C327.057 353.642 322.66 359.279 315.094 357.393C308.949 355.86 307.458 352.414 306.002 336.37C303.727 311.3 300.848 302.112 293.512 296.517C286.225 290.958 284.427 293.518 287.991 304.375C290.443 311.844 289.789 315.597 285.627 317.944C280.616 320.77 276.88 316.02 261.899 287.782C256.108 276.865 257.2 277.253 246.928 282.458L241.852 285.03L243.51 288.257C245.004 291.164 254.615 305.039 261.292 313.927C268.969 324.148 259.504 330.877 250.663 321.483C245.073 315.543 242.879 315.51 242.879 321.369C242.879 328.127 246.75 334.104 264.524 354.792C288.515 382.717 290.043 386.019 282.479 393.583C275.92 400.142 271.832 398.255 257.32 381.963C242.641 365.485 243.438 364.64 243.113 397.025L242.847 423.541L245.784 428.172C247.399 430.719 251.273 434.689 254.393 436.993C265.185 444.966 265.012 446.935 251.785 466.653C248.159 472.06 243.967 478.431 242.469 480.812C234.698 493.166 228.561 490.656 214.092 469.207C197.941 445.263 197.972 447.977 213.687 433.803C221.622 426.645 221.879 425.476 221.879 396.491C221.879 363.613 222.543 364.045 204.339 385.08C192.792 398.421 185.786 400.452 180.163 392.085C175.252 384.779 177.498 380.027 195.602 359.426C217.029 335.043 221.879 328.015 221.879 321.346C221.879 316.372 220.227 316.383 214.872 321.393C208.976 326.907 205.196 327.472 201.934 323.326C198.756 319.286 199.062 318.651 213.85 298.593C223.675 285.267 223.686 285.135 215.198 281.192C206.985 277.376 208.934 275.682 197.34 296.712C184.343 320.288 183.238 321.413 177.514 316.91C174.242 314.337 174.055 310.172 176.878 302.744C179.58 295.636 179.482 293.983 176.357 293.983C166.218 293.983 157.888 315.976 157.88 342.765C157.877 353.825 150.541 360.445 142.751 356.417C138.629 354.285 136.879 349.545 136.879 340.515C136.879 330.615 135.749 330.73 127.981 341.422C118.871 353.96 115.521 355.918 108.97 352.53C103.604 349.755 102.493 341.289 106.78 335.834C111.553 329.76 121.879 313.774 121.879 312.458C121.879 309.884 118.64 310.791 98.2729 319.064C73.5169 329.12 73.2758 329.33 67.2488 346.241C62.5788 359.345 59.3219 361.019 45.4399 357.446C40.4559 356.164 32.8629 354.636 28.5659 354.05C11.9899 351.792 9.04985 345.592 17.8569 331.467C20.5949 327.076 22.8449 323.154 22.8569 322.752C22.8689 322.35 24.6749 318.241 26.8699 313.62C33.0309 300.653 37.0949 299.522 51.3789 306.799C61.9709 312.196 65.6769 311.856 84.3789 303.776C110.276 292.587 109.472 293.948 94.3128 286.953C76.6478 278.801 72.8389 271.132 82.8969 263.97C88.3389 260.095 91.4279 260.762 117.879 271.519C144.201 282.224 149.544 283.397 156.367 279.969C161.377 277.451 160.678 275.623 153.545 272.591C143.382 268.272 140.534 264.232 144.534 259.812C146.459 257.685 169.706 257.126 178.58 258.993C188.136 261.004 196.424 260.762 196.056 258.483C195.878 257.383 195.713 252.498 195.689 247.627L195.646 238.77L188.513 239.378C167.367 241.179 146.291 241.252 144.57 239.531C140.081 235.042 142.84 230.711 153.131 226.094C160.762 222.67 161.228 221.763 156.629 219.279C149.411 215.379 140.82 216.73 117.379 225.451C91.3549 235.133 86.7458 235.682 81.3038 229.748C74.5768 222.412 78.1739 215.535 91.6628 209.942C109.115 202.704 109.299 202.398 98.9929 197.754C95.3549 196.116 89.9039 193.65 86.8789 192.276C66.5919 183.061 63.0999 182.69 49.6859 188.329C35.5419 194.274 33.3478 193.221 25.5438 176.748C22.6078 170.552 18.7829 163.257 17.0429 160.537C9.69586 149.052 13.9469 141.862 29.2779 139.843C33.1829 139.328 40.5399 137.75 45.6249 136.336C59.6799 132.427 62.9169 134.163 67.7859 148.218C73.9439 165.994 76.0978 167.638 110.856 181.089C125.319 186.686 125.15 184.295 109.595 163.168C101.193 151.757 103.17 141.983 113.879 141.983C118.513 141.983 120.188 143.249 125.429 150.714C135.124 164.522 136.879 165.478 136.879 156.951C136.879 144.519 143.497 138.149 151.899 142.493C156.299 144.769 156.937 146.841 158.47 163.835C160.937 191.192 164.053 199.882 173.079 204.578C179.219 207.772 180.258 205.631 176.88 196.744C173.313 187.359 174.916 180.983 180.843 180.983C185.366 180.983 190.815 188.943 203.264 213.733C207.457 222.083 207.282 222.026 215.586 217.733C224.306 213.224 224.73 214.735 208.55 192.646C199.669 180.522 198.725 178.076 201.436 174.206C204.117 170.378 208.542 171.227 214.018 176.62C219.543 182.062 221.879 182.001 221.879 176.416C221.879 170.587 219.831 167.559 201.275 145.96C177.037 117.745 174.945 113.758 180.475 106.307C186.151 98.6586 192.333 100.754 204.601 114.483C222.425 134.428 221.887 134.768 221.857 103.611C221.829 74.4596 221.672 74.0526 205.782 61.8746C200.199 57.5956 200.828 51.7126 207.913 41.9506C210.919 37.8086 215.572 30.7776 218.251 26.3276Z" fill="white"/>
</svg>
