<svg width="826" height="266" viewBox="0 0 826 266" fill="none" xmlns="http://www.w3.org/2000/svg">
<path d="M245.408 247.728C244.885 245.339 243.84 240.653 242.272 233.672C240.741 226.691 239.677 221.931 239.08 219.392C238.744 218.123 238.352 217.208 237.904 216.648C237.456 216.088 236.859 215.752 236.112 215.64L235.72 215.08L236.224 210.656C236.709 210.656 237.661 210.675 239.08 210.712C240.499 210.749 241.992 210.768 243.56 210.768C245.688 210.768 247.779 210.731 249.832 210.656C251.923 210.581 253.267 210.525 253.864 210.488L254.256 210.992L253.92 215.696C252.688 215.845 251.848 215.976 251.4 216.088C250.989 216.2 250.728 216.349 250.616 216.536C250.504 216.723 250.448 217.077 250.448 217.6C250.448 218.533 250.859 221.632 251.68 226.896C252.501 232.16 253.061 235.725 253.36 237.592H254.536C254.909 236.099 255.619 233.131 256.664 228.688C257.747 224.208 258.456 220.941 258.792 218.888C258.904 218.141 258.96 217.637 258.96 217.376C258.96 216.667 258.755 216.2 258.344 215.976C257.971 215.752 257.131 215.64 255.824 215.64L255.432 215.08L255.936 210.656C256.571 210.656 257.765 210.675 259.52 210.712C261.312 210.749 263.141 210.768 265.008 210.768C267.136 210.768 269.227 210.731 271.28 210.656C273.333 210.581 274.659 210.525 275.256 210.488L275.704 210.992L275.312 215.696C274.043 215.845 273.203 215.976 272.792 216.088C272.419 216.2 272.176 216.349 272.064 216.536C271.952 216.723 271.896 217.077 271.896 217.6C271.896 218.533 272.288 221.632 273.072 226.896C273.893 232.16 274.453 235.725 274.752 237.592H275.928C276.413 235.613 277.272 231.88 278.504 226.392C279.736 220.867 280.352 217.712 280.352 216.928C280.352 216.443 280.24 216.144 280.016 216.032C279.829 215.883 279.381 215.808 278.672 215.808H277.272L276.88 215.248L277.328 210.6C277.888 210.637 278.952 210.675 280.52 210.712C282.125 210.749 283.824 210.768 285.616 210.768L292.224 210.712L291.832 215.584C291.235 215.771 290.787 216.069 290.488 216.48C290.227 216.853 289.928 217.581 289.592 218.664L281.864 246.776L267.024 247.728L264.56 231.768H263.776L260.248 246.776L245.408 247.728ZM293.067 243.08C294.187 242.931 294.952 242.576 295.363 242.016C295.773 241.456 295.979 240.523 295.979 239.216L296.035 225.328C296.035 224.357 295.96 223.723 295.811 223.424C295.661 223.125 295.344 222.976 294.859 222.976L293.683 223.032L293.067 222.36L293.515 218.664C294.299 218.664 295.773 218.683 297.939 218.72C300.141 218.757 302.456 218.776 304.883 218.776C307.683 218.776 310.464 218.739 313.227 218.664C315.989 218.552 318.024 218.421 319.331 218.272L320.003 219C319.891 219.56 319.704 220.773 319.443 222.64C319.219 224.469 319.051 226.243 318.939 227.96L311.939 228.352C311.939 228.24 311.957 228.035 311.995 227.736C312.032 227.437 312.051 227.12 312.051 226.784C312.051 225.888 311.771 225.291 311.211 224.992C310.651 224.693 309.531 224.544 307.851 224.544C307.291 224.544 306.917 224.619 306.731 224.768C306.544 224.917 306.451 225.197 306.451 225.608L306.227 229.92H309.867C310.8 229.92 311.771 229.901 312.779 229.864C313.787 229.789 314.496 229.733 314.907 229.696L315.523 230.424L314.851 235.856C314.477 235.856 313.768 235.837 312.723 235.8C311.677 235.763 310.576 235.744 309.419 235.744C308.784 235.744 308.112 235.781 307.403 235.856C306.693 235.893 306.208 235.931 305.947 235.968C305.909 236.379 305.891 236.883 305.891 237.48C305.928 238.077 305.947 238.525 305.947 238.824C305.947 239.944 306.059 240.672 306.283 241.008C306.507 241.307 307.067 241.456 307.963 241.456C309.195 241.456 310.109 241.344 310.707 241.12C311.341 240.896 311.808 240.485 312.107 239.888C312.443 239.253 312.704 238.283 312.891 236.976L319.331 236.528L319.947 237.256C319.835 237.779 319.629 238.955 319.331 240.784C319.069 242.576 318.845 244.499 318.659 246.552L317.875 247.28C317.016 247.243 315.075 247.187 312.051 247.112C309.064 247.037 306.003 247 302.867 247C300.776 247 298.685 247.056 296.595 247.168C294.541 247.317 293.216 247.411 292.619 247.448L293.067 243.08ZM336.67 246.832L336.95 242.8C337.734 242.725 338.35 242.651 338.798 242.576C339.283 242.464 339.563 242.333 339.638 242.184C339.75 242.035 339.806 241.755 339.806 241.344L339.75 240.84L339.638 239.664C338.779 239.627 337.64 239.608 336.222 239.608C335.811 239.608 335.083 239.645 334.038 239.72L332.694 239.776L332.358 241.232L332.302 242.016C332.302 242.352 332.358 242.557 332.47 242.632C332.582 242.707 332.936 242.744 333.534 242.744H334.542L334.99 243.248L334.598 247.168C334.112 247.168 333.16 247.149 331.742 247.112C330.323 247.075 328.848 247.056 327.318 247.056H320.99L321.326 242.968C322.371 242.669 323.099 241.941 323.51 240.784L330.678 219L344.174 218.272L344.902 218.888C345.387 220.717 346.208 223.891 347.366 228.408C348.56 232.888 349.606 236.752 350.502 240C350.763 240.971 351.08 241.68 351.454 242.128C351.864 242.576 352.387 242.837 353.022 242.912L353.358 243.416L352.966 247.112L346.246 247.056C344.006 247.056 342.046 247.075 340.366 247.112C338.686 247.149 337.584 247.187 337.062 247.224L336.67 246.832ZM336.39 233.672C337.286 233.672 338.014 233.653 338.574 233.616L337.23 226.672H336.166L334.262 233.672H336.39ZM355.931 243.024C357.797 242.875 359.029 242.576 359.627 242.128C360.261 241.68 360.579 240.859 360.579 239.664V224.656C359.869 224.656 359.347 224.843 359.011 225.216C358.675 225.552 358.413 226.131 358.227 226.952C358.077 227.736 357.928 228.987 357.779 230.704L351.563 231.04C351.6 230.256 351.656 228.725 351.731 226.448C351.805 224.171 351.861 221.669 351.899 218.944L352.515 218.272L358.283 218.776H372.899L378.723 218.272L379.395 218.944C379.395 221.669 379.413 224.133 379.451 226.336C379.488 228.539 379.525 229.995 379.563 230.704L373.291 231.04C373.141 229.061 372.992 227.661 372.843 226.84C372.731 226.019 372.507 225.459 372.171 225.16C371.872 224.824 371.387 224.656 370.715 224.656C370.603 229.136 370.547 234.139 370.547 239.664C370.547 240.784 370.715 241.568 371.051 242.016C371.424 242.464 372.059 242.688 372.955 242.688C373.477 242.688 373.944 242.669 374.355 242.632C374.803 242.595 375.101 242.557 375.251 242.52L375.531 242.8L375.083 247.28C374.336 247.243 372.955 247.187 370.939 247.112C368.96 247.037 367.093 247 365.339 247C364.069 247 362.296 247.056 360.019 247.168C357.779 247.317 356.304 247.411 355.595 247.448L355.931 243.024ZM381.06 243.136C382.255 242.912 383.039 242.576 383.412 242.128C383.785 241.68 383.972 240.84 383.972 239.608V225.16C383.972 224.264 383.86 223.685 383.636 223.424C383.412 223.125 382.983 222.976 382.348 222.976H381.172L380.724 222.304L381.116 218.776H387.22C389.049 218.776 390.953 218.757 392.932 218.72C394.911 218.645 396.273 218.608 397.02 218.608L396.684 222.864C395.751 223.013 395.135 223.219 394.836 223.48C394.537 223.741 394.369 224.189 394.332 224.824L394.052 229.752L397.468 229.92C398.924 229.92 400.1 229.883 400.996 229.808V225.16C400.996 224.301 400.884 223.723 400.66 223.424C400.436 223.125 400.007 222.976 399.372 222.976H398.14L397.692 222.304L398.084 218.776H405.924C407.38 218.776 408.985 218.757 410.74 218.72C412.495 218.645 413.727 218.608 414.436 218.608L414.1 222.752C412.98 222.939 412.252 223.181 411.916 223.48C411.58 223.741 411.393 224.283 411.356 225.104C411.057 228.277 410.908 233.205 410.908 239.888C410.908 240.933 411.039 241.68 411.3 242.128C411.599 242.539 412.065 242.744 412.7 242.744C412.999 242.744 413.241 242.725 413.428 242.688C413.652 242.651 413.801 242.632 413.876 242.632L414.324 243.192L413.876 247.056L405.644 247L397.636 247.056L397.972 242.912C399.055 242.875 399.82 242.613 400.268 242.128C400.753 241.643 400.996 240.877 400.996 239.832V235.8L398.812 235.744C398.028 235.781 397.113 235.856 396.068 235.968C395.023 236.043 394.295 236.099 393.884 236.136V239.888C393.884 241.083 393.977 241.885 394.164 242.296C394.351 242.669 394.743 242.856 395.34 242.856C395.676 242.856 395.937 242.837 396.124 242.8C396.311 242.763 396.423 242.744 396.46 242.744L396.852 243.248L396.46 247.168C395.825 247.168 394.668 247.131 392.988 247.056C391.345 247.019 389.833 247 388.452 247C386.959 247 385.092 247.037 382.852 247.112L380.668 247.168L381.06 243.136ZM416.004 243.08C417.124 242.931 417.889 242.576 418.3 242.016C418.711 241.456 418.916 240.523 418.916 239.216L418.972 225.328C418.972 224.357 418.897 223.723 418.748 223.424C418.599 223.125 418.281 222.976 417.796 222.976L416.62 223.032L416.004 222.36L416.452 218.664C417.236 218.664 418.711 218.683 420.876 218.72C423.079 218.757 425.393 218.776 427.82 218.776C430.62 218.776 433.401 218.739 436.164 218.664C438.927 218.552 440.961 218.421 442.268 218.272L442.94 219C442.828 219.56 442.641 220.773 442.38 222.64C442.156 224.469 441.988 226.243 441.876 227.96L434.876 228.352C434.876 228.24 434.895 228.035 434.932 227.736C434.969 227.437 434.988 227.12 434.988 226.784C434.988 225.888 434.708 225.291 434.148 224.992C433.588 224.693 432.468 224.544 430.788 224.544C430.228 224.544 429.855 224.619 429.668 224.768C429.481 224.917 429.388 225.197 429.388 225.608L429.164 229.92H432.804C433.737 229.92 434.708 229.901 435.716 229.864C436.724 229.789 437.433 229.733 437.844 229.696L438.46 230.424L437.788 235.856C437.415 235.856 436.705 235.837 435.66 235.8C434.615 235.763 433.513 235.744 432.356 235.744C431.721 235.744 431.049 235.781 430.34 235.856C429.631 235.893 429.145 235.931 428.884 235.968C428.847 236.379 428.828 236.883 428.828 237.48C428.865 238.077 428.884 238.525 428.884 238.824C428.884 239.944 428.996 240.672 429.22 241.008C429.444 241.307 430.004 241.456 430.9 241.456C432.132 241.456 433.047 241.344 433.644 241.12C434.279 240.896 434.745 240.485 435.044 239.888C435.38 239.253 435.641 238.283 435.828 236.976L442.268 236.528L442.884 237.256C442.772 237.779 442.567 238.955 442.268 240.784C442.007 242.576 441.783 244.499 441.596 246.552L440.812 247.28C439.953 247.243 438.012 247.187 434.988 247.112C432.001 247.037 428.94 247 425.804 247C423.713 247 421.623 247.056 419.532 247.168C417.479 247.317 416.153 247.411 415.556 247.448L416.004 243.08ZM468.175 247.672C466.794 247.672 465.692 247.392 464.871 246.832C464.087 246.235 463.396 245.208 462.799 243.752L460.223 237.424H457.759V239.776C457.759 240.672 457.834 241.325 457.983 241.736C458.132 242.109 458.412 242.371 458.823 242.52C459.271 242.632 460.018 242.725 461.063 242.8L461.343 243.192L460.839 247.168C460.204 247.168 459.066 247.131 457.423 247.056C455.78 247.019 454.268 247 452.887 247C451.394 247 449.751 247.056 447.959 247.168C446.167 247.317 445.01 247.411 444.487 247.448L444.879 243.08C445.999 242.893 446.764 242.52 447.175 241.96C447.623 241.4 447.847 240.523 447.847 239.328V224.768C447.847 224.096 447.754 223.629 447.567 223.368C447.418 223.107 447.138 222.976 446.727 222.976L445.047 223.032L444.543 222.472L445.103 218.72L451.879 218.776C453.447 218.776 455.146 218.739 456.975 218.664C458.842 218.589 460.13 218.533 460.839 218.496C465.319 218.496 468.66 219.187 470.863 220.568C473.066 221.949 474.167 224.059 474.167 226.896C474.167 230.293 472.356 233.037 468.735 235.128L471.311 239.104C472.095 240.299 472.86 241.251 473.607 241.96C474.391 242.632 475.082 242.968 475.679 242.968L476.239 243.752L475.791 247.224L468.175 247.672ZM461.287 231.824C462.37 231.376 463.06 230.872 463.359 230.312C463.658 229.752 463.807 228.912 463.807 227.792C463.807 226.672 463.415 225.869 462.631 225.384C461.884 224.861 460.671 224.6 458.991 224.6C458.692 224.6 458.487 224.656 458.375 224.768C458.3 224.88 458.244 225.141 458.207 225.552C458.095 226.709 458.002 228.651 457.927 231.376L461.287 231.824ZM503.093 246.832L503.429 242.128C504.699 241.979 505.539 241.867 505.949 241.792C506.397 241.68 506.677 241.531 506.789 241.344C506.939 241.12 507.013 240.747 507.013 240.224L506.901 239.216L506.565 237.032L502.253 236.92C501.693 236.92 500.2 237.013 497.773 237.2L497.213 239.664C497.101 240.261 497.045 240.672 497.045 240.896C497.045 241.381 497.139 241.699 497.325 241.848C497.549 241.96 498.035 242.016 498.781 242.016H500.237L500.685 242.576L500.237 247.224C499.677 247.187 498.557 247.149 496.877 247.112C495.235 247.075 493.48 247.056 491.613 247.056L484.165 247.112L484.557 242.24C485.901 241.904 486.853 240.877 487.413 239.16L496.317 211.048L511.045 210.152L511.885 210.824C512.445 213.139 513.584 217.693 515.301 224.488C517.019 231.245 518.213 235.893 518.885 238.432C519.221 239.701 519.632 240.635 520.117 241.232C520.64 241.792 521.331 242.109 522.189 242.184L522.581 242.744L522.133 247.168C521.611 247.168 520.584 247.149 519.053 247.112C517.523 247.075 515.917 247.056 514.237 247.056C512.035 247.056 509.851 247.093 507.685 247.168C505.52 247.243 504.139 247.299 503.541 247.336L503.093 246.832ZM502.421 230.144C503.019 230.144 503.989 230.107 505.333 230.032L503.429 220.232H502.197L499.565 230.144H502.421ZM523.465 243.024C524.585 242.875 525.35 242.52 525.761 241.96C526.209 241.4 526.433 240.523 526.433 239.328V225.328C526.433 224.432 526.34 223.816 526.153 223.48C526.004 223.144 525.724 222.976 525.313 222.976L523.633 223.032L523.129 222.472L523.633 218.776H530.465C531.996 218.776 533.638 218.739 535.393 218.664C537.185 218.589 538.436 218.533 539.145 218.496C544.297 218.496 547.75 219.448 549.505 221.352C551.26 223.256 552.137 225.403 552.137 227.792C552.137 229.621 551.596 231.339 550.513 232.944C549.43 234.549 547.974 235.837 546.145 236.808C544.353 237.741 542.43 238.208 540.377 238.208H536.345V239.944C536.345 240.989 536.513 241.736 536.849 242.184C537.185 242.595 537.82 242.8 538.753 242.8L540.153 242.744L540.377 243.136L539.929 247.168C539.294 247.168 538.137 247.131 536.457 247.056C534.814 247.019 533.302 247 531.921 247C531.286 247 529.196 247.093 525.649 247.28L523.017 247.392L523.465 243.024ZM539.425 232.776C540.246 232.477 540.844 231.955 541.217 231.208C541.59 230.461 541.777 229.435 541.777 228.128C541.777 226.859 541.441 225.944 540.769 225.384C540.097 224.824 539.014 224.544 537.521 224.544C537.26 224.544 537.073 224.619 536.961 224.768C536.886 224.88 536.83 225.141 536.793 225.552L536.457 232.384L539.425 232.776ZM552.778 243.024C553.898 242.875 554.663 242.52 555.074 241.96C555.522 241.4 555.746 240.523 555.746 239.328V225.328C555.746 224.432 555.652 223.816 555.466 223.48C555.316 223.144 555.036 222.976 554.626 222.976L552.946 223.032L552.442 222.472L552.946 218.776H559.778C561.308 218.776 562.951 218.739 564.706 218.664C566.498 218.589 567.748 218.533 568.458 218.496C573.61 218.496 577.063 219.448 578.818 221.352C580.572 223.256 581.45 225.403 581.45 227.792C581.45 229.621 580.908 231.339 579.826 232.944C578.743 234.549 577.287 235.837 575.458 236.808C573.666 237.741 571.743 238.208 569.69 238.208H565.658V239.944C565.658 240.989 565.826 241.736 566.162 242.184C566.498 242.595 567.132 242.8 568.066 242.8L569.466 242.744L569.69 243.136L569.242 247.168C568.607 247.168 567.45 247.131 565.77 247.056C564.127 247.019 562.615 247 561.234 247C560.599 247 558.508 247.093 554.962 247.28L552.33 247.392L552.778 243.024ZM568.738 232.776C569.559 232.477 570.156 231.955 570.53 231.208C570.903 230.461 571.09 229.435 571.09 228.128C571.09 226.859 570.754 225.944 570.082 225.384C569.41 224.824 568.327 224.544 566.834 224.544C566.572 224.544 566.386 224.619 566.274 224.768C566.199 224.88 566.143 225.141 566.106 225.552L565.77 232.384L568.738 232.776Z" fill="#088FD2"/>
<line x1="33" y1="232.5" x2="201" y2="232.5" stroke="#088FD2"/>
<line x1="614" y1="232.5" x2="782" y2="232.5" stroke="#088FD2"/>
<path d="M772.994 49.5C764.56 41 750.691 19.4 762.691 1C780.897 14.2083 778.848 34.5052 774.596 45.8263C776.826 41.205 779.76 36.8984 783.498 33C788.729 18.5 804.291 -4.5 824.691 19.5C816.691 30.3 793.896 33 783.498 33C779.76 36.8984 776.826 41.205 774.596 45.8263C774.083 47.1906 773.539 48.4245 772.994 49.5C770.493 55.8888 769.201 62.7966 768.877 70C773.315 59 788.391 38.4 813.191 44C808.982 51.6667 794.226 67.6 768.877 70C769.201 62.7966 770.493 55.8888 772.994 49.5Z" fill="#079C40"/>
<path d="M768.877 126.5C752.694 102.839 748.191 100 768.877 70M803.691 19.5C795.271 23.0705 788.627 27.651 783.498 33M772.994 49.5C764.56 41 750.691 19.4 762.691 1C783.091 15.8 778.06 39.5 772.994 49.5ZM772.994 49.5C770.493 55.8888 769.201 62.7966 768.877 70M772.994 49.5C775.352 43.4762 778.786 37.9138 783.498 33M772.994 49.5C772.06 40.8333 769.391 22.1 766.191 16.5M768.877 70C773.315 59 788.391 38.4 813.191 44C808.982 51.6667 794.226 67.6 768.877 70ZM768.877 70C777.315 62.5 796.091 47.7 803.691 48.5M783.498 33C793.896 33 816.691 30.3 824.691 19.5C804.291 -4.5 788.729 18.5 783.498 33Z" stroke="#E9FFF3"/>
<mask id="path-6-outside-1_13_64" maskUnits="userSpaceOnUse" x="32" y="67" width="760" height="123" fill="black">
<rect fill="white" x="32" y="67" width="760" height="123"/>
<path d="M141.52 155.192L144.976 164.152L121.424 178.616C116.901 179.811 112.549 180.579 108.368 180.92C104.272 181.261 99.8347 181.432 95.056 181.432C84.304 181.432 74.7893 179.256 66.512 174.904C58.2347 170.552 51.792 164.579 47.184 156.984C42.6613 149.304 40.4 140.6 40.4 130.872C40.4 120.888 43.7707 111.672 50.512 103.224C57.3387 94.6907 65.744 87.992 75.728 83.128C85.7973 78.1787 95.3547 75.704 104.4 75.704C110.032 75.704 116.603 76.344 124.112 77.624C131.707 78.904 137.253 80.2693 140.752 81.72V115.512H124.368C120.869 107.661 116.773 101.944 112.08 98.36C107.472 94.6907 102.437 92.856 96.976 92.856C92.112 92.856 87.632 94.264 83.536 97.08C79.5253 99.8107 76.3253 103.608 73.936 108.472C71.632 113.336 70.48 118.755 70.48 124.728C70.48 131.981 71.632 138.595 73.936 144.568C76.24 150.456 79.7813 155.192 84.56 158.776C89.3387 162.36 95.2267 164.152 102.224 164.152H106.192C109.52 164.152 112.123 164.067 114 163.896V142.008L93.008 137.272L98.128 127.032H153.68V136.12L141.52 146.744V155.192ZM205.259 129.336C202.87 129.336 200.566 130.104 198.347 131.64V163.768L218.827 168.76L213.707 179H161.355V169.912L172.747 159.928V134.968L161.355 127.544V118.456L190.923 107.064L196.043 120.376L206.923 109.24C208.459 108.557 210.379 108.216 212.683 108.216C218.23 108.216 222.88 109.368 226.635 111.672C230.39 113.976 232.95 117.176 234.315 121.272L219.851 139.448H209.867C209.867 135.779 209.526 133.176 208.843 131.64C208.16 130.104 206.966 129.336 205.259 129.336ZM281.048 108.216C287.704 108.216 293.635 109.709 298.84 112.696C304.131 115.597 308.227 119.651 311.128 124.856C314.115 129.976 315.608 135.693 315.608 142.008C315.608 148.835 313.347 155.192 308.824 161.08C304.301 166.968 298.627 171.661 291.8 175.16C284.973 178.573 278.36 180.28 271.96 180.28C265.304 180.28 259.331 178.829 254.04 175.928C248.835 172.941 244.739 168.888 241.752 163.768C238.851 158.563 237.4 152.803 237.4 146.488C237.4 139.661 239.661 133.304 244.184 127.416C248.707 121.528 254.381 116.877 261.208 113.464C268.035 109.965 274.648 108.216 281.048 108.216ZM273.624 125.368C270.893 125.368 268.76 126.648 267.224 129.208C265.773 131.683 265.048 135.395 265.048 140.344C265.048 147 266.285 152.461 268.76 156.728C271.32 160.995 274.861 163.128 279.384 163.128C282.115 163.128 284.205 161.848 285.656 159.288C287.192 156.728 287.96 152.973 287.96 148.024C287.96 141.368 286.68 135.949 284.12 131.768C281.645 127.501 278.147 125.368 273.624 125.368ZM446.032 118.712L415.44 179.128H395.472L385.36 154.68L371.92 179.128H351.952L333.648 134.584L320.72 127.032V117.944L352.848 107.192L357.712 126.52L370.768 158.008L379.728 140.984L377.04 134.456L364.112 126.904V117.816L396.24 107.064L401.104 126.392L414.032 157.368L426.064 132.408L406.48 119.736L411.6 109.496L446.032 109.624V118.712ZM515.185 75.832C520.476 75.832 526.62 76.472 533.617 77.752C540.614 79.032 545.734 80.3973 548.977 81.848V110.52H532.593C529.436 104.461 525.724 100.024 521.457 97.208C517.276 94.392 512.71 92.984 507.761 92.984C503.58 92.984 499.74 94.392 496.241 97.208C492.828 99.9387 490.097 103.736 488.049 108.6C486.086 113.464 485.105 118.883 485.105 124.856C485.105 131.597 486.129 137.784 488.177 143.416C490.225 148.963 493.34 153.4 497.521 156.728C501.702 160.056 506.865 161.72 513.009 161.72C521.116 161.72 532.55 158.136 547.313 150.968L553.201 160.44L529.649 178.744C525.553 179.939 521.628 180.707 517.873 181.048C514.204 181.389 510.193 181.56 505.841 181.56C495.857 181.56 487.025 179.384 479.345 175.032C471.665 170.68 465.692 164.707 461.425 157.112C457.158 149.432 455.025 140.728 455.025 131C455.025 121.016 458.182 111.8 464.497 103.352C470.897 94.8187 478.79 88.12 488.177 83.256C497.649 78.3067 506.652 75.832 515.185 75.832ZM639.56 179H607.56V167.864L593.096 179.256C591.389 179.939 589.256 180.28 586.696 180.28C577.992 180.28 571.677 178.189 567.752 174.008C563.912 169.741 561.992 164.621 561.992 158.648C561.992 155.235 562.973 151.907 564.936 148.664C566.899 145.336 569.757 142.264 573.512 139.448H607.56C607.304 135.693 606.024 132.877 603.72 131C601.416 129.037 598.515 128.056 595.016 128.056C589.128 128.056 580.509 129.848 569.16 133.432L565.32 124.728L582.856 110.648C587.549 109.027 593.181 108.216 599.752 108.216C610.333 108.216 618.568 110.563 624.456 115.256C630.344 119.864 633.288 126.648 633.288 135.608V164.28L644.68 168.76L639.56 179ZM594.504 159.16C598.259 159.16 602.611 157.709 607.56 154.808V149.816H588.104C587.677 150.584 587.379 151.267 587.208 151.864C587.037 152.376 586.952 153.059 586.952 153.912C586.952 155.533 587.592 156.813 588.872 157.752C590.237 158.691 592.157 159.16 594.632 159.16H594.504ZM684.796 161.336C684.796 160.141 683.815 158.861 681.852 157.496C679.975 156.045 676.945 154.083 672.764 151.608C666.023 147.683 660.775 144.141 657.02 140.984C653.265 137.827 651.388 134.328 651.388 130.488C651.388 127.416 652.967 124.131 656.124 120.632C659.281 117.133 663.121 114.189 667.644 111.8C672.252 109.411 676.476 108.216 680.316 108.216C685.009 108.216 690.471 108.728 696.7 109.752C702.929 110.691 707.452 111.757 710.268 112.952V135.224H700.284C698.236 131.64 695.719 128.824 692.732 126.776C689.745 124.643 686.716 123.576 683.644 123.576C682.449 123.576 681.511 123.917 680.828 124.6C680.231 125.283 679.932 126.136 679.932 127.16C679.932 128.525 680.913 129.976 682.876 131.512C684.924 132.963 688.124 134.968 692.476 137.528C699.047 141.283 704.167 144.696 707.836 147.768C711.505 150.84 713.34 154.253 713.34 158.008C713.34 161.165 711.719 164.493 708.476 167.992C705.233 171.405 701.265 174.307 696.572 176.696C691.879 179.085 687.569 180.28 683.644 180.28C678.695 180.28 672.807 179.811 665.98 178.872C659.153 177.848 654.247 176.739 651.26 175.544V151.992H661.244C663.633 156.003 666.577 159.16 670.076 161.464C673.575 163.768 677.031 164.92 680.444 164.92C681.724 164.92 682.748 164.579 683.516 163.896C684.369 163.213 684.796 162.36 684.796 161.336ZM768.712 179.256C765.213 179.939 761.117 180.28 756.424 180.28C747.549 180.28 741.064 178.445 736.968 174.776C732.872 171.021 730.824 165.261 730.824 157.496V123.704H717V115.896L746.44 85.048H756.424V113.336H779.464V123.704H756.424V155.192C756.424 160.397 759.752 163 766.408 163C768.115 163 769.779 162.829 771.4 162.488C773.107 162.061 775.24 161.336 777.8 160.312L781.64 169.016L768.712 179.256Z"/>
</mask>
<path d="M141.52 155.192L144.976 164.152L121.424 178.616C116.901 179.811 112.549 180.579 108.368 180.92C104.272 181.261 99.8347 181.432 95.056 181.432C84.304 181.432 74.7893 179.256 66.512 174.904C58.2347 170.552 51.792 164.579 47.184 156.984C42.6613 149.304 40.4 140.6 40.4 130.872C40.4 120.888 43.7707 111.672 50.512 103.224C57.3387 94.6907 65.744 87.992 75.728 83.128C85.7973 78.1787 95.3547 75.704 104.4 75.704C110.032 75.704 116.603 76.344 124.112 77.624C131.707 78.904 137.253 80.2693 140.752 81.72V115.512H124.368C120.869 107.661 116.773 101.944 112.08 98.36C107.472 94.6907 102.437 92.856 96.976 92.856C92.112 92.856 87.632 94.264 83.536 97.08C79.5253 99.8107 76.3253 103.608 73.936 108.472C71.632 113.336 70.48 118.755 70.48 124.728C70.48 131.981 71.632 138.595 73.936 144.568C76.24 150.456 79.7813 155.192 84.56 158.776C89.3387 162.36 95.2267 164.152 102.224 164.152H106.192C109.52 164.152 112.123 164.067 114 163.896V142.008L93.008 137.272L98.128 127.032H153.68V136.12L141.52 146.744V155.192ZM205.259 129.336C202.87 129.336 200.566 130.104 198.347 131.64V163.768L218.827 168.76L213.707 179H161.355V169.912L172.747 159.928V134.968L161.355 127.544V118.456L190.923 107.064L196.043 120.376L206.923 109.24C208.459 108.557 210.379 108.216 212.683 108.216C218.23 108.216 222.88 109.368 226.635 111.672C230.39 113.976 232.95 117.176 234.315 121.272L219.851 139.448H209.867C209.867 135.779 209.526 133.176 208.843 131.64C208.16 130.104 206.966 129.336 205.259 129.336ZM281.048 108.216C287.704 108.216 293.635 109.709 298.84 112.696C304.131 115.597 308.227 119.651 311.128 124.856C314.115 129.976 315.608 135.693 315.608 142.008C315.608 148.835 313.347 155.192 308.824 161.08C304.301 166.968 298.627 171.661 291.8 175.16C284.973 178.573 278.36 180.28 271.96 180.28C265.304 180.28 259.331 178.829 254.04 175.928C248.835 172.941 244.739 168.888 241.752 163.768C238.851 158.563 237.4 152.803 237.4 146.488C237.4 139.661 239.661 133.304 244.184 127.416C248.707 121.528 254.381 116.877 261.208 113.464C268.035 109.965 274.648 108.216 281.048 108.216ZM273.624 125.368C270.893 125.368 268.76 126.648 267.224 129.208C265.773 131.683 265.048 135.395 265.048 140.344C265.048 147 266.285 152.461 268.76 156.728C271.32 160.995 274.861 163.128 279.384 163.128C282.115 163.128 284.205 161.848 285.656 159.288C287.192 156.728 287.96 152.973 287.96 148.024C287.96 141.368 286.68 135.949 284.12 131.768C281.645 127.501 278.147 125.368 273.624 125.368ZM446.032 118.712L415.44 179.128H395.472L385.36 154.68L371.92 179.128H351.952L333.648 134.584L320.72 127.032V117.944L352.848 107.192L357.712 126.52L370.768 158.008L379.728 140.984L377.04 134.456L364.112 126.904V117.816L396.24 107.064L401.104 126.392L414.032 157.368L426.064 132.408L406.48 119.736L411.6 109.496L446.032 109.624V118.712ZM515.185 75.832C520.476 75.832 526.62 76.472 533.617 77.752C540.614 79.032 545.734 80.3973 548.977 81.848V110.52H532.593C529.436 104.461 525.724 100.024 521.457 97.208C517.276 94.392 512.71 92.984 507.761 92.984C503.58 92.984 499.74 94.392 496.241 97.208C492.828 99.9387 490.097 103.736 488.049 108.6C486.086 113.464 485.105 118.883 485.105 124.856C485.105 131.597 486.129 137.784 488.177 143.416C490.225 148.963 493.34 153.4 497.521 156.728C501.702 160.056 506.865 161.72 513.009 161.72C521.116 161.72 532.55 158.136 547.313 150.968L553.201 160.44L529.649 178.744C525.553 179.939 521.628 180.707 517.873 181.048C514.204 181.389 510.193 181.56 505.841 181.56C495.857 181.56 487.025 179.384 479.345 175.032C471.665 170.68 465.692 164.707 461.425 157.112C457.158 149.432 455.025 140.728 455.025 131C455.025 121.016 458.182 111.8 464.497 103.352C470.897 94.8187 478.79 88.12 488.177 83.256C497.649 78.3067 506.652 75.832 515.185 75.832ZM639.56 179H607.56V167.864L593.096 179.256C591.389 179.939 589.256 180.28 586.696 180.28C577.992 180.28 571.677 178.189 567.752 174.008C563.912 169.741 561.992 164.621 561.992 158.648C561.992 155.235 562.973 151.907 564.936 148.664C566.899 145.336 569.757 142.264 573.512 139.448H607.56C607.304 135.693 606.024 132.877 603.72 131C601.416 129.037 598.515 128.056 595.016 128.056C589.128 128.056 580.509 129.848 569.16 133.432L565.32 124.728L582.856 110.648C587.549 109.027 593.181 108.216 599.752 108.216C610.333 108.216 618.568 110.563 624.456 115.256C630.344 119.864 633.288 126.648 633.288 135.608V164.28L644.68 168.76L639.56 179ZM594.504 159.16C598.259 159.16 602.611 157.709 607.56 154.808V149.816H588.104C587.677 150.584 587.379 151.267 587.208 151.864C587.037 152.376 586.952 153.059 586.952 153.912C586.952 155.533 587.592 156.813 588.872 157.752C590.237 158.691 592.157 159.16 594.632 159.16H594.504ZM684.796 161.336C684.796 160.141 683.815 158.861 681.852 157.496C679.975 156.045 676.945 154.083 672.764 151.608C666.023 147.683 660.775 144.141 657.02 140.984C653.265 137.827 651.388 134.328 651.388 130.488C651.388 127.416 652.967 124.131 656.124 120.632C659.281 117.133 663.121 114.189 667.644 111.8C672.252 109.411 676.476 108.216 680.316 108.216C685.009 108.216 690.471 108.728 696.7 109.752C702.929 110.691 707.452 111.757 710.268 112.952V135.224H700.284C698.236 131.64 695.719 128.824 692.732 126.776C689.745 124.643 686.716 123.576 683.644 123.576C682.449 123.576 681.511 123.917 680.828 124.6C680.231 125.283 679.932 126.136 679.932 127.16C679.932 128.525 680.913 129.976 682.876 131.512C684.924 132.963 688.124 134.968 692.476 137.528C699.047 141.283 704.167 144.696 707.836 147.768C711.505 150.84 713.34 154.253 713.34 158.008C713.34 161.165 711.719 164.493 708.476 167.992C705.233 171.405 701.265 174.307 696.572 176.696C691.879 179.085 687.569 180.28 683.644 180.28C678.695 180.28 672.807 179.811 665.98 178.872C659.153 177.848 654.247 176.739 651.26 175.544V151.992H661.244C663.633 156.003 666.577 159.16 670.076 161.464C673.575 163.768 677.031 164.92 680.444 164.92C681.724 164.92 682.748 164.579 683.516 163.896C684.369 163.213 684.796 162.36 684.796 161.336ZM768.712 179.256C765.213 179.939 761.117 180.28 756.424 180.28C747.549 180.28 741.064 178.445 736.968 174.776C732.872 171.021 730.824 165.261 730.824 157.496V123.704H717V115.896L746.44 85.048H756.424V113.336H779.464V123.704H756.424V155.192C756.424 160.397 759.752 163 766.408 163C768.115 163 769.779 162.829 771.4 162.488C773.107 162.061 775.24 161.336 777.8 160.312L781.64 169.016L768.712 179.256Z" fill="#079C40"/>
<path d="M141.52 155.192H133.52V156.681L134.056 158.071L141.52 155.192ZM144.976 164.152L149.163 170.969L154.836 167.485L152.44 161.273L144.976 164.152ZM121.424 178.616L123.467 186.351L124.606 186.05L125.611 185.433L121.424 178.616ZM108.368 180.92L107.717 172.947L107.704 172.948L108.368 180.92ZM66.512 174.904L62.789 181.985L66.512 174.904ZM47.184 156.984L40.2905 161.044L40.3172 161.089L40.3445 161.134L47.184 156.984ZM50.512 103.224L44.265 98.2264L44.2589 98.2341L50.512 103.224ZM75.728 83.128L79.2318 90.3199L79.2444 90.3138L79.257 90.3076L75.728 83.128ZM124.112 77.624L122.768 85.5102L122.775 85.5115L122.782 85.5127L124.112 77.624ZM140.752 81.72H148.752V76.3766L143.816 74.3301L140.752 81.72ZM140.752 115.512V123.512H148.752V115.512H140.752ZM124.368 115.512L117.061 118.768L119.175 123.512H124.368V115.512ZM112.08 98.36L107.097 104.618L107.16 104.669L107.225 104.718L112.08 98.36ZM83.536 97.08L88.0383 103.693L88.0533 103.683L88.0682 103.672L83.536 97.08ZM73.936 108.472L66.7556 104.945L66.7305 104.996L66.7061 105.047L73.936 108.472ZM73.936 144.568L66.472 147.447L66.479 147.465L66.4861 147.483L73.936 144.568ZM84.56 158.776L79.76 165.176L79.76 165.176L84.56 158.776ZM114 163.896L114.724 171.863L122 171.202V163.896H114ZM114 142.008H122V135.612L115.761 134.204L114 142.008ZM93.008 137.272L85.8526 133.694L81.2855 142.828L91.2474 145.076L93.008 137.272ZM98.128 127.032V119.032H93.1837L90.9726 123.454L98.128 127.032ZM153.68 127.032H161.68V119.032H153.68V127.032ZM153.68 136.12L158.944 142.145L161.68 139.754V136.12H153.68ZM141.52 146.744L136.256 140.719L133.52 143.11V146.744H141.52ZM141.52 155.192L134.056 158.071L137.512 167.031L144.976 164.152L152.44 161.273L148.984 152.313L141.52 155.192ZM144.976 164.152L140.789 157.335L117.237 171.799L121.424 178.616L125.611 185.433L149.163 170.969L144.976 164.152ZM121.424 178.616L119.381 170.881C115.263 171.969 111.378 172.648 107.717 172.947L108.368 180.92L109.019 188.893C113.72 188.51 118.54 187.652 123.467 186.351L121.424 178.616ZM108.368 180.92L107.704 172.948C103.861 173.268 99.6476 173.432 95.056 173.432V181.432V189.432C100.022 189.432 104.683 189.255 109.032 188.892L108.368 180.92ZM95.056 181.432V173.432C85.4057 173.432 77.2028 171.487 70.235 167.823L66.512 174.904L62.789 181.985C72.3759 187.025 83.2023 189.432 95.056 189.432V181.432ZM66.512 174.904L70.235 167.823C63.1726 164.11 57.8376 159.12 54.0235 152.834L47.184 156.984L40.3445 161.134C45.7464 170.037 53.2968 176.994 62.789 181.985L66.512 174.904ZM47.184 156.984L54.0775 152.924C50.3447 146.586 48.4 139.307 48.4 130.872H40.4H32.4C32.4 141.893 34.978 152.022 40.2905 161.044L47.184 156.984ZM40.4 130.872H48.4C48.4 122.855 51.055 115.37 56.7651 108.214L50.512 103.224L44.2589 98.2341C36.4864 107.974 32.4 118.921 32.4 130.872H40.4ZM50.512 103.224L56.759 108.222C62.8327 100.629 70.2955 94.6735 79.2318 90.3199L75.728 83.128L72.2242 75.9361C61.1925 81.3105 51.8446 88.752 44.265 98.2264L50.512 103.224ZM75.728 83.128L79.257 90.3076C88.4864 85.7711 96.8367 83.704 104.4 83.704V75.704V67.704C93.8726 67.704 83.1082 70.5863 72.199 75.9484L75.728 83.128ZM104.4 75.704V83.704C109.456 83.704 115.559 84.2814 122.768 85.5102L124.112 77.624L125.456 69.7377C117.647 68.4066 110.608 67.704 104.4 67.704V75.704ZM124.112 77.624L122.782 85.5127C130.261 86.7731 135.065 88.0223 137.688 89.1099L140.752 81.72L143.816 74.3301C139.442 72.5164 133.153 71.0349 125.442 69.7353L124.112 77.624ZM140.752 81.72H132.752V115.512H140.752H148.752V81.72H140.752ZM140.752 115.512V107.512H124.368V115.512V123.512H140.752V115.512ZM124.368 115.512L131.675 112.256C127.863 103.701 123.068 96.6847 116.935 92.0019L112.08 98.36L107.225 104.718C110.479 107.203 113.876 111.621 117.061 118.768L124.368 115.512ZM112.08 98.36L117.063 92.1018C111.158 87.3994 104.394 84.856 96.976 84.856V92.856V100.856C100.481 100.856 103.786 101.982 107.097 104.618L112.08 98.36ZM96.976 92.856V84.856C90.4562 84.856 84.4022 86.7762 79.0038 90.4877L83.536 97.08L88.0682 103.672C90.8618 101.752 93.7678 100.856 96.976 100.856V92.856ZM83.536 97.08L79.0337 90.4672C73.749 94.0653 69.6826 98.9862 66.7556 104.945L73.936 108.472L81.1164 111.999C82.9681 108.23 85.3017 105.556 88.0383 103.693L83.536 97.08ZM73.936 108.472L66.7061 105.047C63.8417 111.094 62.48 117.701 62.48 124.728H70.48H78.48C78.48 119.808 79.4223 115.578 81.1659 111.897L73.936 108.472ZM70.48 124.728H62.48C62.48 132.836 63.7698 140.441 66.472 147.447L73.936 144.568L81.4 141.689C79.4942 136.748 78.48 131.127 78.48 124.728H70.48ZM73.936 144.568L66.4861 147.483C69.299 154.672 73.7205 160.646 79.76 165.176L84.56 158.776L89.36 152.376C85.8422 149.738 83.181 146.24 81.3859 141.653L73.936 144.568ZM84.56 158.776L79.76 165.176C86.1507 169.969 93.8032 172.152 102.224 172.152V164.152V156.152C96.6502 156.152 92.5266 154.751 89.36 152.376L84.56 158.776ZM102.224 164.152V172.152H106.192V164.152V156.152H102.224V164.152ZM106.192 164.152V172.152C109.609 172.152 112.491 172.066 114.724 171.863L114 163.896L113.276 155.929C111.754 156.067 109.431 156.152 106.192 156.152V164.152ZM114 163.896H122V142.008H114H106V163.896H114ZM114 142.008L115.761 134.204L94.7686 129.468L93.008 137.272L91.2474 145.076L112.239 149.812L114 142.008ZM93.008 137.272L100.163 140.85L105.283 130.61L98.128 127.032L90.9726 123.454L85.8526 133.694L93.008 137.272ZM98.128 127.032V135.032H153.68V127.032V119.032H98.128V127.032ZM153.68 127.032H145.68V136.12H153.68H161.68V127.032H153.68ZM153.68 136.12L148.416 130.095L136.256 140.719L141.52 146.744L146.784 152.769L158.944 142.145L153.68 136.12ZM141.52 146.744H133.52V155.192H141.52H149.52V146.744H141.52ZM198.347 131.64L193.793 125.062L190.347 127.448V131.64H198.347ZM198.347 163.768H190.347V170.052L196.452 171.54L198.347 163.768ZM218.827 168.76L225.982 172.338L230.469 163.364L220.722 160.988L218.827 168.76ZM213.707 179V187H218.651L220.862 182.578L213.707 179ZM161.355 179H153.355V187H161.355V179ZM161.355 169.912L156.082 163.896L153.355 166.286V169.912H161.355ZM172.747 159.928L178.02 165.944L180.747 163.554V159.928H172.747ZM172.747 134.968H180.747V130.633L177.115 128.266L172.747 134.968ZM161.355 127.544H153.355V131.879L156.987 134.246L161.355 127.544ZM161.355 118.456L158.479 110.991L153.355 112.965V118.456H161.355ZM190.923 107.064L198.39 104.192L195.516 96.7211L188.047 99.5989L190.923 107.064ZM196.043 120.376L188.576 123.248L193.052 134.885L201.765 125.967L196.043 120.376ZM206.923 109.24L203.674 101.93L202.272 102.552L201.201 103.649L206.923 109.24ZM226.635 111.672L222.451 118.491L222.451 118.491L226.635 111.672ZM234.315 121.272L240.575 126.253L243.277 122.858L241.904 118.742L234.315 121.272ZM219.851 139.448V147.448H223.709L226.111 144.429L219.851 139.448ZM209.867 139.448H201.867V147.448H209.867V139.448ZM208.843 131.64L201.533 134.889L201.533 134.889L208.843 131.64ZM205.259 129.336V121.336C201.037 121.336 197.17 122.725 193.793 125.062L198.347 131.64L202.901 138.218C203.961 137.483 204.703 137.336 205.259 137.336V129.336ZM198.347 131.64H190.347V163.768H198.347H206.347V131.64H198.347ZM198.347 163.768L196.452 171.54L216.932 176.532L218.827 168.76L220.722 160.988L200.242 155.996L198.347 163.768ZM218.827 168.76L211.672 165.182L206.552 175.422L213.707 179L220.862 182.578L225.982 172.338L218.827 168.76ZM213.707 179V171H161.355V179V187H213.707V179ZM161.355 179H169.355V169.912H161.355H153.355V179H161.355ZM161.355 169.912L166.628 175.928L178.02 165.944L172.747 159.928L167.474 153.912L156.082 163.896L161.355 169.912ZM172.747 159.928H180.747V134.968H172.747H164.747V159.928H172.747ZM172.747 134.968L177.115 128.266L165.723 120.842L161.355 127.544L156.987 134.246L168.379 141.67L172.747 134.968ZM161.355 127.544H169.355V118.456H161.355H153.355V127.544H161.355ZM161.355 118.456L164.231 125.921L193.799 114.529L190.923 107.064L188.047 99.5989L158.479 110.991L161.355 118.456ZM190.923 107.064L183.456 109.936L188.576 123.248L196.043 120.376L203.51 117.504L198.39 104.192L190.923 107.064ZM196.043 120.376L201.765 125.967L212.645 114.831L206.923 109.24L201.201 103.649L190.321 114.785L196.043 120.376ZM206.923 109.24L210.172 116.55C210.381 116.458 211.108 116.216 212.683 116.216V108.216V100.216C209.65 100.216 206.537 100.657 203.674 101.93L206.923 109.24ZM212.683 108.216V116.216C217.132 116.216 220.243 117.136 222.451 118.491L226.635 111.672L230.819 104.853C225.517 101.6 219.327 100.216 212.683 100.216V108.216ZM226.635 111.672L222.451 118.491C224.637 119.832 225.969 121.531 226.726 123.802L234.315 121.272L241.904 118.742C239.931 112.821 236.143 108.12 230.819 104.853L226.635 111.672ZM234.315 121.272L228.055 116.291L213.591 134.467L219.851 139.448L226.111 144.429L240.575 126.253L234.315 121.272ZM219.851 139.448V131.448H209.867V139.448V147.448H219.851V139.448ZM209.867 139.448H217.867C217.867 135.676 217.574 131.588 216.153 128.391L208.843 131.64L201.533 134.889C201.438 134.676 201.559 134.869 201.679 135.784C201.791 136.635 201.867 137.836 201.867 139.448H209.867ZM208.843 131.64L216.153 128.391C215.297 126.463 213.897 124.556 211.761 123.183C209.633 121.815 207.334 121.336 205.259 121.336V129.336V137.336C204.891 137.336 204.042 137.241 203.109 136.641C202.168 136.036 201.707 135.281 201.533 134.889L208.843 131.64ZM298.84 112.696L294.859 119.635L294.926 119.673L294.993 119.71L298.84 112.696ZM311.128 124.856L304.14 128.751L304.178 128.819L304.218 128.887L311.128 124.856ZM308.824 161.08L315.168 165.953L315.168 165.953L308.824 161.08ZM291.8 175.16L295.378 182.315L295.413 182.298L295.449 182.279L291.8 175.16ZM254.04 175.928L250.059 182.867L250.126 182.905L250.193 182.942L254.04 175.928ZM241.752 163.768L234.764 167.663L234.802 167.731L234.842 167.799L241.752 163.768ZM244.184 127.416L250.528 132.289L250.528 132.289L244.184 127.416ZM261.208 113.464L264.786 120.619L264.821 120.602L264.857 120.583L261.208 113.464ZM267.224 129.208L260.364 125.092L260.343 125.127L260.322 125.162L267.224 129.208ZM268.76 156.728L261.84 160.742L261.87 160.793L261.9 160.844L268.76 156.728ZM285.656 159.288L278.796 155.172L278.745 155.257L278.696 155.344L285.656 159.288ZM284.12 131.768L277.2 135.782L277.248 135.864L277.297 135.945L284.12 131.768ZM281.048 108.216V116.216C286.463 116.216 290.994 117.417 294.859 119.635L298.84 112.696L302.821 105.757C296.276 102.001 288.945 100.216 281.048 100.216V108.216ZM298.84 112.696L294.993 119.71C298.982 121.898 301.981 124.878 304.14 128.751L311.128 124.856L318.116 120.961C314.472 114.424 309.279 109.297 302.687 105.681L298.84 112.696ZM311.128 124.856L304.218 128.887C306.444 132.703 307.608 137.014 307.608 142.008H315.608H323.608C323.608 134.373 321.785 127.249 318.038 120.825L311.128 124.856ZM315.608 142.008H307.608C307.608 146.915 306.029 151.586 302.48 156.207L308.824 161.08L315.168 165.953C320.665 158.798 323.608 150.754 323.608 142.008H315.608ZM308.824 161.08L302.48 156.207C298.702 161.124 293.96 165.063 288.151 168.041L291.8 175.16L295.449 182.279C303.293 178.259 309.9 172.812 315.168 165.953L308.824 161.08ZM291.8 175.16L288.222 168.005C282.294 170.969 276.901 172.28 271.96 172.28V180.28V188.28C279.819 188.28 287.652 186.178 295.378 182.315L291.8 175.16ZM271.96 180.28V172.28C266.507 172.28 261.88 171.103 257.887 168.914L254.04 175.928L250.193 182.942C256.781 186.555 264.101 188.28 271.96 188.28V180.28ZM254.04 175.928L258.021 168.989C254.014 166.69 250.935 163.633 248.662 159.737L241.752 163.768L234.842 167.799C238.543 174.143 243.655 179.193 250.059 182.867L254.04 175.928ZM241.752 163.768L248.74 159.873C246.542 155.93 245.4 151.523 245.4 146.488H237.4H229.4C229.4 154.082 231.159 161.195 234.764 167.663L241.752 163.768ZM237.4 146.488H245.4C245.4 141.581 246.979 136.91 250.528 132.289L244.184 127.416L237.84 122.543C232.343 129.698 229.4 137.742 229.4 146.488H237.4ZM244.184 127.416L250.528 132.289C254.292 127.389 259.011 123.507 264.786 120.619L261.208 113.464L257.63 106.309C249.752 110.248 243.121 115.667 237.84 122.543L244.184 127.416ZM261.208 113.464L264.857 120.583C270.777 117.55 276.145 116.216 281.048 116.216V108.216V100.216C273.151 100.216 265.293 102.381 257.559 106.345L261.208 113.464ZM273.624 125.368V117.368C267.781 117.368 263.183 120.393 260.364 125.092L267.224 129.208L274.084 133.324C274.2 133.131 274.27 133.057 274.272 133.055C274.273 133.054 274.258 133.07 274.226 133.095C274.194 133.121 274.149 133.154 274.092 133.188C273.97 133.261 273.839 133.314 273.724 133.345C273.613 133.374 273.57 133.368 273.624 133.368V125.368ZM267.224 129.208L260.322 125.162C257.803 129.46 257.048 134.875 257.048 140.344H265.048H273.048C273.048 135.914 273.744 133.906 274.126 133.254L267.224 129.208ZM265.048 140.344H257.048C257.048 147.935 258.453 154.902 261.84 160.742L268.76 156.728L275.68 152.714C274.118 150.021 273.048 146.065 273.048 140.344H265.048ZM268.76 156.728L261.9 160.844C265.732 167.23 271.728 171.128 279.384 171.128V163.128V155.128C277.994 155.128 276.908 154.76 275.62 152.612L268.76 156.728ZM279.384 163.128V171.128C285.259 171.128 289.88 168.061 292.616 163.232L285.656 159.288L278.696 155.344C278.598 155.517 278.546 155.567 278.567 155.544C278.592 155.517 278.676 155.435 278.823 155.345C278.972 155.254 279.127 155.191 279.259 155.156C279.386 155.122 279.439 155.128 279.384 155.128V163.128ZM285.656 159.288L292.516 163.404C295.139 159.032 295.96 153.573 295.96 148.024H287.96H279.96C279.96 152.374 279.245 154.424 278.796 155.172L285.656 159.288ZM287.96 148.024H295.96C295.96 140.403 294.501 133.402 290.943 127.591L284.12 131.768L277.297 135.945C278.859 138.496 279.96 142.333 279.96 148.024H287.96ZM284.12 131.768L291.04 127.754C287.292 121.292 281.3 117.368 273.624 117.368V125.368V133.368C274.994 133.368 275.999 133.711 277.2 135.782L284.12 131.768ZM446.032 118.712L453.169 122.326L454.032 120.622V118.712H446.032ZM415.44 179.128V187.128H420.356L422.577 182.742L415.44 179.128ZM395.472 179.128L388.079 182.186L390.124 187.128H395.472V179.128ZM385.36 154.68L392.753 151.622L386.381 136.217L378.35 150.826L385.36 154.68ZM371.92 179.128V187.128H376.651L378.931 182.982L371.92 179.128ZM351.952 179.128L344.552 182.169L346.59 187.128H351.952V179.128ZM333.648 134.584L341.048 131.543L340.019 129.041L337.683 127.676L333.648 134.584ZM320.72 127.032H312.72V131.624L316.685 133.94L320.72 127.032ZM320.72 117.944L318.181 110.358L312.72 112.185V117.944H320.72ZM352.848 107.192L360.606 105.24L358.499 96.8649L350.309 99.6056L352.848 107.192ZM357.712 126.52L349.954 128.472L350.097 129.042L350.322 129.584L357.712 126.52ZM370.768 158.008L363.378 161.072L369.908 176.82L377.847 161.734L370.768 158.008ZM379.728 140.984L386.807 144.71L388.55 141.398L387.125 137.938L379.728 140.984ZM377.04 134.456L384.437 131.41L383.409 128.911L381.075 127.548L377.04 134.456ZM364.112 126.904H356.112V131.496L360.077 133.812L364.112 126.904ZM364.112 117.816L361.573 110.23L356.112 112.057V117.816H364.112ZM396.24 107.064L403.998 105.112L401.891 96.7369L393.701 99.4776L396.24 107.064ZM401.104 126.392L393.346 128.344L393.491 128.923L393.721 129.473L401.104 126.392ZM414.032 157.368L406.649 160.449L413.507 176.881L421.238 160.842L414.032 157.368ZM426.064 132.408L433.27 135.882L436.335 129.525L430.41 125.691L426.064 132.408ZM406.48 119.736L399.325 116.158L396.122 122.563L402.134 126.453L406.48 119.736ZM411.6 109.496L411.63 101.496L406.665 101.478L404.445 105.918L411.6 109.496ZM446.032 109.624H454.032V101.654L446.062 101.624L446.032 109.624ZM446.032 118.712L438.895 115.098L408.303 175.514L415.44 179.128L422.577 182.742L453.169 122.326L446.032 118.712ZM415.44 179.128V171.128H395.472V179.128V187.128H415.44V179.128ZM395.472 179.128L402.865 176.07L392.753 151.622L385.36 154.68L377.967 157.738L388.079 182.186L395.472 179.128ZM385.36 154.68L378.35 150.826L364.91 175.274L371.92 179.128L378.931 182.982L392.371 158.534L385.36 154.68ZM371.92 179.128V171.128H351.952V179.128V187.128H371.92V179.128ZM351.952 179.128L359.352 176.087L341.048 131.543L333.648 134.584L326.248 137.625L344.552 182.169L351.952 179.128ZM333.648 134.584L337.683 127.676L324.755 120.124L320.72 127.032L316.685 133.94L329.613 141.492L333.648 134.584ZM320.72 127.032H328.72V117.944H320.72H312.72V127.032H320.72ZM320.72 117.944L323.259 125.53L355.387 114.778L352.848 107.192L350.309 99.6056L318.181 110.358L320.72 117.944ZM352.848 107.192L345.09 109.144L349.954 128.472L357.712 126.52L365.47 124.568L360.606 105.24L352.848 107.192ZM357.712 126.52L350.322 129.584L363.378 161.072L370.768 158.008L378.158 154.944L365.102 123.456L357.712 126.52ZM370.768 158.008L377.847 161.734L386.807 144.71L379.728 140.984L372.649 137.258L363.689 154.282L370.768 158.008ZM379.728 140.984L387.125 137.938L384.437 131.41L377.04 134.456L369.643 137.502L372.331 144.03L379.728 140.984ZM377.04 134.456L381.075 127.548L368.147 119.996L364.112 126.904L360.077 133.812L373.005 141.364L377.04 134.456ZM364.112 126.904H372.112V117.816H364.112H356.112V126.904H364.112ZM364.112 117.816L366.651 125.402L398.779 114.65L396.24 107.064L393.701 99.4776L361.573 110.23L364.112 117.816ZM396.24 107.064L388.482 109.016L393.346 128.344L401.104 126.392L408.862 124.44L403.998 105.112L396.24 107.064ZM401.104 126.392L393.721 129.473L406.649 160.449L414.032 157.368L421.415 154.287L408.487 123.311L401.104 126.392ZM414.032 157.368L421.238 160.842L433.27 135.882L426.064 132.408L418.858 128.934L406.826 153.894L414.032 157.368ZM426.064 132.408L430.41 125.691L410.826 113.019L406.48 119.736L402.134 126.453L421.718 139.125L426.064 132.408ZM406.48 119.736L413.635 123.314L418.755 113.074L411.6 109.496L404.445 105.918L399.325 116.158L406.48 119.736ZM411.6 109.496L411.57 117.496L446.002 117.624L446.032 109.624L446.062 101.624L411.63 101.496L411.6 109.496ZM446.032 109.624H438.032V118.712H446.032H454.032V109.624H446.032ZM533.617 77.752L532.177 85.6214L532.177 85.6214L533.617 77.752ZM548.977 81.848H556.977V76.6629L552.244 74.5454L548.977 81.848ZM548.977 110.52V118.52H556.977V110.52H548.977ZM532.593 110.52L525.499 114.217L527.741 118.52H532.593V110.52ZM521.457 97.208L516.988 103.843L517.019 103.864L517.05 103.885L521.457 97.208ZM496.241 97.208L501.239 103.455L501.248 103.448L501.257 103.44L496.241 97.208ZM488.049 108.6L480.676 105.496L480.653 105.551L480.63 105.606L488.049 108.6ZM488.177 143.416L480.659 146.15L480.665 146.168L480.672 146.187L488.177 143.416ZM497.521 156.728L502.503 150.469L502.503 150.469L497.521 156.728ZM547.313 150.968L554.107 146.745L550.302 140.623L543.819 143.771L547.313 150.968ZM553.201 160.44L558.11 166.757L563.799 162.335L559.995 156.217L553.201 160.44ZM529.649 178.744L531.889 186.424L533.354 185.997L534.558 185.061L529.649 178.744ZM517.873 181.048L517.149 173.081L517.14 173.082L517.132 173.082L517.873 181.048ZM479.345 175.032L483.289 168.072L479.345 175.032ZM461.425 157.112L454.432 160.997L454.441 161.014L454.45 161.03L461.425 157.112ZM464.497 103.352L458.097 98.552L458.089 98.5624L464.497 103.352ZM488.177 83.256L491.858 90.359L491.87 90.3527L491.882 90.3464L488.177 83.256ZM515.185 75.832V83.832C519.861 83.832 525.504 84.4007 532.177 85.6214L533.617 77.752L535.057 69.8826C527.735 68.5433 521.091 67.832 515.185 67.832V75.832ZM533.617 77.752L532.177 85.6214C539.041 86.8769 543.38 88.1081 545.71 89.1505L548.977 81.848L552.244 74.5454C548.089 72.6865 542.188 71.1871 535.057 69.8826L533.617 77.752ZM548.977 81.848H540.977V110.52H548.977H556.977V81.848H548.977ZM548.977 110.52V102.52H532.593V110.52V118.52H548.977V110.52ZM532.593 110.52L539.687 106.823C536.105 99.9492 531.583 94.3059 525.864 90.5311L521.457 97.208L517.05 103.885C519.864 105.742 522.766 108.973 525.499 114.217L532.593 110.52ZM521.457 97.208L525.926 90.5725C520.45 86.8847 514.334 84.984 507.761 84.984V92.984V100.984C511.087 100.984 514.101 101.899 516.988 103.843L521.457 97.208ZM507.761 92.984V84.984C501.615 84.984 496.032 87.1067 491.225 90.9759L496.241 97.208L501.257 103.44C503.447 101.677 505.544 100.984 507.761 100.984V92.984ZM496.241 97.208L491.243 90.961C486.593 94.6811 483.135 99.6557 480.676 105.496L488.049 108.6L495.422 111.704C497.059 107.816 499.062 105.196 501.239 103.455L496.241 97.208ZM488.049 108.6L480.63 105.606C478.234 111.545 477.105 117.998 477.105 124.856H485.105H493.105C493.105 119.767 493.939 115.383 495.468 111.594L488.049 108.6ZM485.105 124.856H477.105C477.105 132.414 478.255 139.539 480.659 146.15L488.177 143.416L495.695 140.682C494.003 136.029 493.105 130.78 493.105 124.856H485.105ZM488.177 143.416L480.672 146.187C483.171 152.955 487.095 158.654 492.539 162.987L497.521 156.728L502.503 150.469C499.585 148.146 497.279 144.97 495.682 140.645L488.177 143.416ZM497.521 156.728L492.539 162.987C498.344 167.608 505.34 169.72 513.009 169.72V161.72V153.72C508.39 153.72 505.061 152.504 502.503 150.469L497.521 156.728ZM513.009 161.72V169.72C523.032 169.72 535.849 165.427 550.807 158.165L547.313 150.968L543.819 143.771C529.251 150.845 519.199 153.72 513.009 153.72V161.72ZM547.313 150.968L540.519 155.191L546.407 164.663L553.201 160.44L559.995 156.217L554.107 146.745L547.313 150.968ZM553.201 160.44L548.292 154.123L524.74 172.427L529.649 178.744L534.558 185.061L558.11 166.757L553.201 160.44ZM529.649 178.744L527.409 171.064C523.744 172.133 520.328 172.792 517.149 173.081L517.873 181.048L518.597 189.015C522.927 188.622 527.362 187.744 531.889 186.424L529.649 178.744ZM517.873 181.048L517.132 173.082C513.748 173.397 509.988 173.56 505.841 173.56V181.56V189.56C510.398 189.56 514.659 189.382 518.614 189.014L517.873 181.048ZM505.841 181.56V173.56C497.055 173.56 489.616 171.657 483.289 168.072L479.345 175.032L475.401 181.992C484.434 187.111 494.659 189.56 505.841 189.56V181.56ZM479.345 175.032L483.289 168.072C476.86 164.429 471.942 159.499 468.4 153.194L461.425 157.112L454.45 161.03C459.441 169.914 466.47 176.931 475.401 181.992L479.345 175.032ZM461.425 157.112L468.418 153.227C464.881 146.859 463.025 139.517 463.025 131H455.025H447.025C447.025 141.939 449.436 152.005 454.432 160.997L461.425 157.112ZM455.025 131H463.025C463.025 122.844 465.562 115.29 470.905 108.142L464.497 103.352L458.089 98.5624C450.803 108.31 447.025 119.188 447.025 131H455.025ZM464.497 103.352L470.897 108.152C476.582 100.572 483.549 94.6644 491.858 90.359L488.177 83.256L484.496 76.153C474.032 81.5755 465.212 89.0652 458.097 98.552L464.497 103.352ZM488.177 83.256L491.882 90.3464C500.493 85.8469 508.227 83.832 515.185 83.832V75.832V67.832C505.076 67.832 494.805 70.7665 484.472 76.1656L488.177 83.256ZM639.56 179V187H644.504L646.715 182.578L639.56 179ZM607.56 179H599.56V187H607.56V179ZM607.56 167.864H615.56V151.38L602.61 161.579L607.56 167.864ZM593.096 179.256L596.067 186.684L597.139 186.255L598.046 185.541L593.096 179.256ZM567.752 174.008L561.806 179.36L561.862 179.422L561.919 179.483L567.752 174.008ZM564.936 148.664L571.78 152.806L571.804 152.767L571.827 152.728L564.936 148.664ZM573.512 139.448V131.448H570.845L568.712 133.048L573.512 139.448ZM607.56 139.448V147.448H616.124L615.541 138.904L607.56 139.448ZM603.72 131L598.532 137.09L598.599 137.147L598.667 137.202L603.72 131ZM569.16 133.432L561.841 136.661L564.734 143.219L571.569 141.061L569.16 133.432ZM565.32 124.728L560.311 118.49L555.521 122.336L558.001 127.957L565.32 124.728ZM582.856 110.648L580.244 103.086L578.931 103.54L577.847 104.41L582.856 110.648ZM624.456 115.256L619.47 121.512L619.497 121.534L619.526 121.556L624.456 115.256ZM633.288 164.28H625.288V169.73L630.36 171.725L633.288 164.28ZM644.68 168.76L651.835 172.338L655.746 164.516L647.608 161.315L644.68 168.76ZM607.56 154.808L611.606 161.71L615.56 159.392V154.808H607.56ZM607.56 149.816H615.56V141.816H607.56V149.816ZM588.104 149.816V141.816H583.397L581.111 145.931L588.104 149.816ZM587.208 151.864L594.797 154.394L594.852 154.229L594.9 154.062L587.208 151.864ZM588.872 157.752L584.141 164.203L584.239 164.275L584.34 164.344L588.872 157.752ZM639.56 179V171H607.56V179V187H639.56V179ZM607.56 179H615.56V167.864H607.56H599.56V179H607.56ZM607.56 167.864L602.61 161.579L588.146 172.971L593.096 179.256L598.046 185.541L612.51 174.149L607.56 167.864ZM593.096 179.256L590.125 171.828C589.656 172.016 588.61 172.28 586.696 172.28V180.28V188.28C589.902 188.28 593.123 187.861 596.067 186.684L593.096 179.256ZM586.696 180.28V172.28C579.065 172.28 575.365 170.429 573.585 168.533L567.752 174.008L561.919 179.483C567.99 185.95 576.919 188.28 586.696 188.28V180.28ZM567.752 174.008L573.698 168.656C571.238 165.923 569.992 162.733 569.992 158.648H561.992H553.992C553.992 166.51 556.586 173.56 561.806 179.36L567.752 174.008ZM561.992 158.648H569.992C569.992 156.853 570.488 154.942 571.78 152.806L564.936 148.664L558.092 144.522C555.459 148.872 553.992 153.617 553.992 158.648H561.992ZM564.936 148.664L571.827 152.728C573.152 150.482 575.225 148.163 578.312 145.848L573.512 139.448L568.712 133.048C564.29 136.365 560.646 140.19 558.045 144.6L564.936 148.664ZM573.512 139.448V147.448H607.56V139.448V131.448H573.512V139.448ZM607.56 139.448L615.541 138.904C615.177 133.565 613.227 128.427 608.773 124.798L603.72 131L598.667 137.202C598.821 137.328 599.431 137.822 599.579 139.992L607.56 139.448ZM603.72 131L608.908 124.91C604.934 121.525 600.102 120.056 595.016 120.056V128.056V136.056C596.927 136.056 597.898 136.549 598.532 137.09L603.72 131ZM595.016 128.056V120.056C587.844 120.056 578.254 122.171 566.751 125.803L569.16 133.432L571.569 141.061C582.765 137.525 590.412 136.056 595.016 136.056V128.056ZM569.16 133.432L576.479 130.203L572.639 121.499L565.32 124.728L558.001 127.957L561.841 136.661L569.16 133.432ZM565.32 124.728L570.329 130.966L587.865 116.886L582.856 110.648L577.847 104.41L560.311 118.49L565.32 124.728ZM582.856 110.648L585.468 118.21C589.099 116.955 593.8 116.216 599.752 116.216V108.216V100.216C592.562 100.216 586 101.098 580.244 103.086L582.856 110.648ZM599.752 108.216V116.216C609.242 116.216 615.474 118.327 619.47 121.512L624.456 115.256L629.442 109C621.662 102.798 611.424 100.216 599.752 100.216V108.216ZM624.456 115.256L619.526 121.556C623.084 124.341 625.288 128.564 625.288 135.608H633.288H641.288C641.288 124.732 637.604 115.387 629.386 108.956L624.456 115.256ZM633.288 135.608H625.288V164.28H633.288H641.288V135.608H633.288ZM633.288 164.28L630.36 171.725L641.752 176.205L644.68 168.76L647.608 161.315L636.216 156.835L633.288 164.28ZM644.68 168.76L637.525 165.182L632.405 175.422L639.56 179L646.715 182.578L651.835 172.338L644.68 168.76ZM594.504 159.16V167.16C600.241 167.16 606.026 164.981 611.606 161.71L607.56 154.808L603.514 147.906C599.196 150.438 596.276 151.16 594.504 151.16V159.16ZM607.56 154.808H615.56V149.816H607.56H599.56V154.808H607.56ZM607.56 149.816V141.816H588.104V149.816V157.816H607.56V149.816ZM588.104 149.816L581.111 145.931C580.499 147.032 579.907 148.296 579.516 149.666L587.208 151.864L594.9 154.062C594.87 154.167 594.856 154.186 594.889 154.111C594.921 154.037 594.986 153.902 595.097 153.701L588.104 149.816ZM587.208 151.864L579.619 149.334C579.065 150.994 578.952 152.638 578.952 153.912H586.952H594.952C594.952 153.742 594.961 153.697 594.954 153.752C594.948 153.799 594.917 154.036 594.797 154.394L587.208 151.864ZM586.952 153.912H578.952C578.952 158.017 580.755 161.72 584.141 164.203L588.872 157.752L593.603 151.301C593.874 151.5 594.279 151.894 594.587 152.51C594.893 153.121 594.952 153.647 594.952 153.912H586.952ZM588.872 157.752L584.34 164.344C587.548 166.55 591.292 167.16 594.632 167.16V159.16V151.16C593.882 151.16 593.441 151.087 593.236 151.037C593.04 150.989 593.15 150.985 593.404 151.16L588.872 157.752ZM594.632 159.16V151.16H594.504V159.16V167.16H594.632V159.16ZM681.852 157.496L676.96 163.826L677.119 163.949L677.283 164.063L681.852 157.496ZM672.764 151.608L676.839 144.723L676.814 144.709L676.79 144.695L672.764 151.608ZM656.124 120.632L650.185 115.272L650.185 115.272L656.124 120.632ZM667.644 111.8L663.961 104.698L663.934 104.712L663.907 104.726L667.644 111.8ZM696.7 109.752L695.402 117.646L695.455 117.655L695.508 117.663L696.7 109.752ZM710.268 112.952H718.268V107.656L713.392 105.587L710.268 112.952ZM710.268 135.224V143.224H718.268V135.224H710.268ZM700.284 135.224L693.338 139.193L695.641 143.224H700.284V135.224ZM692.732 126.776L688.082 133.286L688.145 133.33L688.208 133.374L692.732 126.776ZM680.828 124.6L675.171 118.943L674.983 119.132L674.807 119.332L680.828 124.6ZM682.876 131.512L677.946 137.812L678.096 137.93L678.252 138.04L682.876 131.512ZM692.476 137.528L688.42 144.423L688.463 144.449L688.507 144.474L692.476 137.528ZM707.836 147.768L712.971 141.634L712.971 141.634L707.836 147.768ZM708.476 167.992L714.276 173.502L714.31 173.466L714.343 173.43L708.476 167.992ZM696.572 176.696L700.201 183.825L696.572 176.696ZM665.98 178.872L664.793 186.783L664.842 186.791L664.89 186.797L665.98 178.872ZM651.26 175.544H643.26V180.96L648.289 182.972L651.26 175.544ZM651.26 151.992V143.992H643.26V151.992H651.26ZM661.244 151.992L668.117 147.898L665.79 143.992H661.244V151.992ZM670.076 161.464L665.676 168.145L665.676 168.145L670.076 161.464ZM683.516 163.896L678.518 157.649L678.356 157.779L678.201 157.917L683.516 163.896ZM684.796 161.336H692.796C692.796 158.453 691.599 156.165 690.409 154.613C689.237 153.084 687.785 151.878 686.421 150.929L681.852 157.496L677.283 164.063C677.881 164.479 677.902 164.596 677.711 164.347C677.503 164.075 676.796 163.025 676.796 161.336H684.796ZM681.852 157.496L686.744 151.166C684.457 149.399 681.074 147.23 676.839 144.723L672.764 151.608L668.689 158.493C672.816 160.935 675.493 162.692 676.96 163.826L681.852 157.496ZM672.764 151.608L676.79 144.695C670.242 140.882 665.43 137.603 662.169 134.861L657.02 140.984L651.871 147.107C656.119 150.679 661.803 154.483 668.738 158.521L672.764 151.608ZM657.02 140.984L662.169 134.861C659.68 132.769 659.388 131.34 659.388 130.488H651.388H643.388C643.388 137.316 646.85 142.885 651.871 147.107L657.02 140.984ZM651.388 130.488H659.388C659.388 130.222 659.549 128.778 662.063 125.992L656.124 120.632L650.185 115.272C646.384 119.484 643.388 124.61 643.388 130.488H651.388ZM656.124 120.632L662.063 125.992C664.541 123.246 667.616 120.862 671.381 118.874L667.644 111.8L663.907 104.726C658.626 107.516 654.022 111.021 650.185 115.272L656.124 120.632ZM667.644 111.8L671.327 118.902C675.178 116.905 678.128 116.216 680.316 116.216V108.216V100.216C674.824 100.216 669.326 101.917 663.961 104.698L667.644 111.8ZM680.316 108.216V116.216C684.456 116.216 689.466 116.67 695.402 117.646L696.7 109.752L697.998 101.858C691.476 100.786 685.563 100.216 680.316 100.216V108.216ZM696.7 109.752L695.508 117.663C701.619 118.583 705.304 119.536 707.144 120.317L710.268 112.952L713.392 105.587C709.6 103.978 704.24 102.798 697.892 101.841L696.7 109.752ZM710.268 112.952H702.268V135.224H710.268H718.268V112.952H710.268ZM710.268 135.224V127.224H700.284V135.224V143.224H710.268V135.224ZM700.284 135.224L707.23 131.255C704.667 126.77 701.369 122.998 697.256 120.178L692.732 126.776L688.208 133.374C690.069 134.65 691.805 136.51 693.338 139.193L700.284 135.224ZM692.732 126.776L697.382 120.266C693.309 117.357 688.688 115.576 683.644 115.576V123.576V131.576C684.744 131.576 686.182 131.928 688.082 133.286L692.732 126.776ZM683.644 123.576V115.576C680.861 115.576 677.694 116.421 675.171 118.943L680.828 124.6L686.485 130.257C685.971 130.771 685.368 131.136 684.778 131.35C684.218 131.554 683.801 131.576 683.644 131.576V123.576ZM680.828 124.6L674.807 119.332C672.769 121.662 671.932 124.465 671.932 127.16H679.932H687.932C687.932 127.43 687.891 127.867 687.707 128.395C687.517 128.936 687.221 129.443 686.849 129.868L680.828 124.6ZM679.932 127.16H671.932C671.932 132.415 675.553 135.94 677.946 137.812L682.876 131.512L687.806 125.212C687.228 124.759 687.166 124.6 687.294 124.79C687.447 125.015 687.932 125.848 687.932 127.16H679.932ZM682.876 131.512L678.252 138.04C680.587 139.694 684.026 141.839 688.42 144.423L692.476 137.528L696.532 130.633C692.222 128.097 689.261 126.231 687.5 124.984L682.876 131.512ZM692.476 137.528L688.507 144.474C694.873 148.112 699.541 151.257 702.701 153.902L707.836 147.768L712.971 141.634C708.792 138.135 703.22 134.454 696.445 130.582L692.476 137.528ZM707.836 147.768L702.701 153.902C705.093 155.905 705.34 157.244 705.34 158.008H713.34H721.34C721.34 151.263 717.918 145.775 712.971 141.634L707.836 147.768ZM713.34 158.008H705.34C705.34 158.33 705.163 159.798 702.609 162.554L708.476 167.992L714.343 173.43C718.275 169.189 721.34 164.001 721.34 158.008H713.34ZM708.476 167.992L702.676 162.482C700.129 165.163 696.921 167.541 692.943 169.567L696.572 176.696L700.201 183.825C705.61 181.072 710.337 177.648 714.276 173.502L708.476 167.992ZM696.572 176.696L692.943 169.567C689.007 171.57 685.952 172.28 683.644 172.28V180.28V188.28C689.187 188.28 694.751 186.6 700.201 183.825L696.572 176.696ZM683.644 180.28V172.28C679.169 172.28 673.664 171.853 667.07 170.947L665.98 178.872L664.89 186.797C671.949 187.768 678.22 188.28 683.644 188.28V180.28ZM665.98 178.872L667.167 170.961C660.42 169.949 656.298 168.943 654.231 168.116L651.26 175.544L648.289 182.972C652.195 184.534 657.887 185.747 664.793 186.783L665.98 178.872ZM651.26 175.544H659.26V151.992H651.26H643.26V175.544H651.26ZM651.26 151.992V159.992H661.244V151.992V143.992H651.26V151.992ZM661.244 151.992L654.371 156.086C657.307 161.015 661.058 165.104 665.676 168.145L670.076 161.464L674.476 154.783C672.097 153.216 669.959 150.99 668.117 147.898L661.244 151.992ZM670.076 161.464L665.676 168.145C670.182 171.113 675.144 172.92 680.444 172.92V164.92V156.92C678.918 156.92 676.967 156.423 674.476 154.783L670.076 161.464ZM680.444 164.92V172.92C683.183 172.92 686.263 172.157 688.831 169.875L683.516 163.896L678.201 157.917C678.667 157.502 679.179 157.229 679.642 157.075C680.081 156.928 680.38 156.92 680.444 156.92V164.92ZM683.516 163.896L688.514 170.143C691.118 168.059 692.796 164.972 692.796 161.336H684.796H676.796C676.796 160.699 676.938 159.931 677.321 159.166C677.695 158.417 678.172 157.926 678.518 157.649L683.516 163.896ZM768.712 179.256L770.244 187.108L772.154 186.735L773.679 185.527L768.712 179.256ZM736.968 174.776L731.562 180.673L731.596 180.704L731.63 180.735L736.968 174.776ZM730.824 123.704H738.824V115.704H730.824V123.704ZM717 123.704H709V131.704H717V123.704ZM717 115.896L711.213 110.373L709 112.691V115.896H717ZM746.44 85.048V77.048H743.016L740.653 79.5248L746.44 85.048ZM756.424 85.048H764.424V77.048H756.424V85.048ZM756.424 113.336H748.424V121.336H756.424V113.336ZM779.464 113.336H787.464V105.336H779.464V113.336ZM779.464 123.704V131.704H787.464V123.704H779.464ZM756.424 123.704V115.704H748.424V123.704H756.424ZM771.4 162.488L773.048 170.316L773.195 170.286L773.34 170.249L771.4 162.488ZM777.8 160.312L785.119 157.083L782.001 150.015L774.829 152.884L777.8 160.312ZM781.64 169.016L786.607 175.287L791.456 171.446L788.959 165.787L781.64 169.016ZM768.712 179.256L767.18 171.404C764.315 171.963 760.754 172.28 756.424 172.28V180.28V188.28C761.48 188.28 766.111 187.914 770.244 187.108L768.712 179.256ZM756.424 180.28V172.28C748.378 172.28 744.263 170.57 742.306 168.817L736.968 174.776L731.63 180.735C737.865 186.32 746.721 188.28 756.424 188.28V180.28ZM736.968 174.776L742.374 168.879C740.504 167.165 738.824 163.937 738.824 157.496H730.824H722.824C722.824 166.586 725.24 174.878 731.562 180.673L736.968 174.776ZM730.824 157.496H738.824V123.704H730.824H722.824V157.496H730.824ZM730.824 123.704V115.704H717V123.704V131.704H730.824V123.704ZM717 123.704H725V115.896H717H709V123.704H717ZM717 115.896L722.787 121.419L752.227 90.5712L746.44 85.048L740.653 79.5248L711.213 110.373L717 115.896ZM746.44 85.048V93.048H756.424V85.048V77.048H746.44V85.048ZM756.424 85.048H748.424V113.336H756.424H764.424V85.048H756.424ZM756.424 113.336V121.336H779.464V113.336V105.336H756.424V113.336ZM779.464 113.336H771.464V123.704H779.464H787.464V113.336H779.464ZM779.464 123.704V115.704H756.424V123.704V131.704H779.464V123.704ZM756.424 123.704H748.424V155.192H756.424H764.424V123.704H756.424ZM756.424 155.192H748.424C748.424 159.624 749.94 164.181 753.992 167.35C757.669 170.226 762.256 171 766.408 171V163V155C765.239 155 764.489 154.883 764.058 154.771C763.64 154.662 763.651 154.592 763.848 154.746C764.086 154.932 764.296 155.21 764.407 155.471C764.498 155.684 764.424 155.653 764.424 155.192H756.424ZM766.408 163V171C768.652 171 770.869 170.775 773.048 170.316L771.4 162.488L769.752 154.66C768.689 154.883 767.578 155 766.408 155V163ZM771.4 162.488L773.34 170.249C775.536 169.7 778.041 168.832 780.771 167.74L777.8 160.312L774.829 152.884C772.439 153.84 770.677 154.422 769.46 154.727L771.4 162.488ZM777.8 160.312L770.481 163.541L774.321 172.245L781.64 169.016L788.959 165.787L785.119 157.083L777.8 160.312ZM781.64 169.016L776.673 162.745L763.745 172.985L768.712 179.256L773.679 185.527L786.607 175.287L781.64 169.016Z" fill="white" mask="url(#path-6-outside-1_13_64)"/>
</svg>
