<svg width="1001" height="323" viewBox="0 0 1001 323" fill="none" xmlns="http://www.w3.org/2000/svg">
<path d="M297.464 300.761C296.831 297.865 295.564 292.186 293.663 283.724C291.808 275.261 290.518 269.492 289.794 266.415C289.387 264.876 288.912 263.767 288.369 263.088C287.826 262.41 287.102 262.002 286.197 261.867L285.721 261.188L286.332 255.825C286.921 255.825 288.075 255.848 289.794 255.893C291.514 255.939 293.324 255.961 295.224 255.961C297.804 255.961 300.338 255.916 302.827 255.825C305.361 255.735 306.99 255.667 307.714 255.622L308.189 256.233L307.782 261.935C306.289 262.116 305.27 262.274 304.727 262.41C304.23 262.545 303.913 262.726 303.777 262.953C303.641 263.179 303.574 263.609 303.574 264.242C303.574 265.374 304.071 269.13 305.067 275.51C306.062 281.891 306.741 286.213 307.103 288.475H308.529C308.981 286.665 309.841 283.067 311.108 277.682C312.42 272.252 313.28 268.293 313.687 265.804C313.823 264.899 313.891 264.288 313.891 263.971C313.891 263.111 313.642 262.545 313.144 262.274C312.692 262.002 311.674 261.867 310.09 261.867L309.615 261.188L310.226 255.825C310.995 255.825 312.443 255.848 314.57 255.893C316.742 255.939 318.959 255.961 321.222 255.961C323.801 255.961 326.336 255.916 328.824 255.825C331.313 255.735 332.92 255.667 333.644 255.622L334.187 256.233L333.712 261.935C332.173 262.116 331.155 262.274 330.657 262.41C330.205 262.545 329.91 262.726 329.775 262.953C329.639 263.179 329.571 263.609 329.571 264.242C329.571 265.374 330.046 269.13 330.997 275.51C331.992 281.891 332.671 286.213 333.033 288.475H334.458C335.047 286.077 336.087 281.552 337.581 274.899C339.074 268.202 339.821 264.378 339.821 263.428C339.821 262.84 339.685 262.478 339.414 262.342C339.187 262.161 338.644 262.07 337.784 262.07H336.087L335.612 261.392L336.155 255.758C336.834 255.803 338.124 255.848 340.024 255.893C341.97 255.939 344.029 255.961 346.201 255.961L354.211 255.893L353.736 261.799C353.012 262.025 352.469 262.387 352.107 262.885C351.79 263.337 351.428 264.22 351.021 265.532L341.654 299.607L323.666 300.761L320.679 281.416H319.729L315.452 299.607L297.464 300.761ZM355.232 295.127C356.59 294.946 357.518 294.516 358.015 293.838C358.513 293.159 358.762 292.027 358.762 290.444L358.83 273.61C358.83 272.433 358.74 271.664 358.559 271.302C358.378 270.94 357.993 270.759 357.405 270.759L355.979 270.827L355.232 270.012L355.775 265.532C356.726 265.532 358.513 265.555 361.138 265.6C363.808 265.645 366.613 265.668 369.555 265.668C372.949 265.668 376.32 265.623 379.669 265.532C383.018 265.396 385.484 265.238 387.068 265.057L387.882 265.939C387.746 266.618 387.52 268.089 387.203 270.352C386.932 272.569 386.728 274.718 386.592 276.8L378.108 277.275C378.108 277.139 378.13 276.891 378.175 276.528C378.221 276.166 378.243 275.782 378.243 275.375C378.243 274.288 377.904 273.564 377.225 273.202C376.546 272.84 375.189 272.659 373.152 272.659C372.474 272.659 372.021 272.75 371.795 272.931C371.569 273.112 371.455 273.451 371.455 273.949L371.184 279.176H375.596C376.727 279.176 377.904 279.153 379.126 279.108C380.348 279.017 381.207 278.949 381.705 278.904L382.452 279.787L381.637 286.371C381.185 286.371 380.325 286.348 379.058 286.303C377.791 286.258 376.456 286.235 375.053 286.235C374.284 286.235 373.469 286.28 372.609 286.371C371.75 286.416 371.161 286.461 370.845 286.507C370.799 287.004 370.777 287.615 370.777 288.339C370.822 289.063 370.845 289.606 370.845 289.968C370.845 291.326 370.98 292.208 371.252 292.616C371.523 292.978 372.202 293.159 373.288 293.159C374.782 293.159 375.89 293.023 376.614 292.752C377.384 292.48 377.949 291.982 378.311 291.258C378.719 290.489 379.035 289.312 379.262 287.728L387.068 287.185L387.814 288.068C387.679 288.701 387.43 290.127 387.068 292.344C386.751 294.516 386.479 296.847 386.253 299.336L385.303 300.218C384.262 300.173 381.909 300.105 378.243 300.015C374.623 299.924 370.912 299.879 367.111 299.879C364.577 299.879 362.043 299.947 359.509 300.082C357.02 300.263 355.413 300.377 354.689 300.422L355.232 295.127ZM408.085 299.675L408.424 294.788C409.374 294.697 410.121 294.607 410.664 294.516C411.252 294.381 411.592 294.222 411.682 294.041C411.818 293.86 411.886 293.521 411.886 293.023L411.818 292.412L411.682 290.987C410.641 290.941 409.261 290.919 407.542 290.919C407.044 290.919 406.161 290.964 404.894 291.055L403.265 291.122L402.858 292.887L402.79 293.838C402.79 294.245 402.858 294.494 402.994 294.584C403.129 294.675 403.559 294.72 404.283 294.72H405.505L406.048 295.331L405.573 300.082C404.985 300.082 403.831 300.06 402.111 300.015C400.392 299.969 398.604 299.947 396.749 299.947H389.079L389.486 294.992C390.753 294.629 391.635 293.747 392.133 292.344L400.822 265.939L417.18 265.057L418.063 265.804C418.651 268.021 419.647 271.867 421.049 277.343C422.498 282.773 423.765 287.457 424.851 291.394C425.167 292.571 425.552 293.43 426.005 293.973C426.502 294.516 427.136 294.833 427.905 294.924L428.312 295.535L427.837 300.015L419.692 299.947C416.977 299.947 414.601 299.969 412.565 300.015C410.528 300.06 409.193 300.105 408.56 300.15L408.085 299.675ZM407.745 283.724C408.831 283.724 409.714 283.701 410.392 283.656L408.763 275.239H407.474L405.166 283.724H407.745ZM431.431 295.059C433.694 294.878 435.187 294.516 435.911 293.973C436.68 293.43 437.065 292.435 437.065 290.987V272.795C436.205 272.795 435.572 273.021 435.164 273.474C434.757 273.881 434.44 274.583 434.214 275.578C434.033 276.528 433.852 278.044 433.671 280.126L426.137 280.533C426.182 279.583 426.25 277.728 426.34 274.967C426.431 272.207 426.499 269.175 426.544 265.872L427.291 265.057L434.282 265.668H451.998L459.058 265.057L459.872 265.872C459.872 269.175 459.895 272.162 459.94 274.832C459.985 277.501 460.031 279.266 460.076 280.126L452.474 280.533C452.293 278.135 452.112 276.438 451.931 275.442C451.795 274.447 451.523 273.768 451.116 273.406C450.754 272.999 450.166 272.795 449.351 272.795C449.215 278.225 449.148 284.289 449.148 290.987C449.148 292.344 449.351 293.295 449.758 293.838C450.211 294.381 450.98 294.652 452.066 294.652C452.7 294.652 453.266 294.629 453.763 294.584C454.306 294.539 454.668 294.494 454.849 294.448L455.189 294.788L454.646 300.218C453.741 300.173 452.066 300.105 449.623 300.015C447.224 299.924 444.962 299.879 442.835 299.879C441.296 299.879 439.147 299.947 436.386 300.082C433.671 300.263 431.884 300.377 431.024 300.422L431.431 295.059ZM461.891 295.195C463.339 294.924 464.29 294.516 464.742 293.973C465.195 293.43 465.421 292.412 465.421 290.919V273.406C465.421 272.32 465.285 271.619 465.014 271.302C464.742 270.94 464.222 270.759 463.452 270.759H462.027L461.484 269.944L461.959 265.668H469.358C471.575 265.668 473.883 265.645 476.282 265.6C478.68 265.509 480.332 265.464 481.237 265.464L480.829 270.623C479.698 270.804 478.951 271.053 478.589 271.37C478.227 271.686 478.024 272.229 477.979 272.999L477.639 278.972L481.78 279.176C483.545 279.176 484.97 279.131 486.056 279.04V273.406C486.056 272.365 485.92 271.664 485.649 271.302C485.377 270.94 484.857 270.759 484.088 270.759H482.594L482.051 269.944L482.526 265.668H492.029C493.794 265.668 495.74 265.645 497.867 265.6C499.994 265.509 501.487 265.464 502.347 265.464L501.94 270.487C500.582 270.714 499.7 271.008 499.292 271.37C498.885 271.686 498.659 272.343 498.614 273.338C498.252 277.185 498.071 283.158 498.071 291.258C498.071 292.525 498.229 293.43 498.546 293.973C498.908 294.471 499.473 294.72 500.243 294.72C500.605 294.72 500.899 294.697 501.125 294.652C501.397 294.607 501.578 294.584 501.668 294.584L502.211 295.263L501.668 299.947L491.69 299.879L481.983 299.947L482.391 294.924C483.703 294.878 484.631 294.562 485.174 293.973C485.762 293.385 486.056 292.457 486.056 291.19V286.303L483.409 286.235C482.459 286.28 481.35 286.371 480.083 286.507C478.816 286.597 477.933 286.665 477.435 286.71V291.258C477.435 292.706 477.549 293.679 477.775 294.177C478.001 294.629 478.476 294.856 479.2 294.856C479.608 294.856 479.924 294.833 480.151 294.788C480.377 294.743 480.513 294.72 480.558 294.72L481.033 295.331L480.558 300.082C479.789 300.082 478.386 300.037 476.349 299.947C474.358 299.901 472.526 299.879 470.851 299.879C469.041 299.879 466.779 299.924 464.063 300.015L461.416 300.082L461.891 295.195ZM504.248 295.127C505.605 294.946 506.533 294.516 507.031 293.838C507.528 293.159 507.777 292.027 507.777 290.444L507.845 273.61C507.845 272.433 507.755 271.664 507.574 271.302C507.393 270.94 507.008 270.759 506.42 270.759L504.994 270.827L504.248 270.012L504.791 265.532C505.741 265.532 507.528 265.555 510.153 265.6C512.823 265.645 515.629 265.668 518.57 265.668C521.964 265.668 525.335 265.623 528.684 265.532C532.033 265.396 534.499 265.238 536.083 265.057L536.897 265.939C536.762 266.618 536.535 268.089 536.219 270.352C535.947 272.569 535.743 274.718 535.608 276.8L527.123 277.275C527.123 277.139 527.145 276.891 527.191 276.528C527.236 276.166 527.259 275.782 527.259 275.375C527.259 274.288 526.919 273.564 526.24 273.202C525.562 272.84 524.204 272.659 522.168 272.659C521.489 272.659 521.036 272.75 520.81 272.931C520.584 273.112 520.471 273.451 520.471 273.949L520.199 279.176H524.611C525.743 279.176 526.919 279.153 528.141 279.108C529.363 279.017 530.223 278.949 530.72 278.904L531.467 279.787L530.652 286.371C530.2 286.371 529.34 286.348 528.073 286.303C526.806 286.258 525.471 286.235 524.068 286.235C523.299 286.235 522.484 286.28 521.625 286.371C520.765 286.416 520.176 286.461 519.86 286.507C519.814 287.004 519.792 287.615 519.792 288.339C519.837 289.063 519.86 289.606 519.86 289.968C519.86 291.326 519.995 292.208 520.267 292.616C520.539 292.978 521.217 293.159 522.303 293.159C523.797 293.159 524.905 293.023 525.629 292.752C526.399 292.48 526.964 291.982 527.326 291.258C527.734 290.489 528.05 289.312 528.277 287.728L536.083 287.185L536.829 288.068C536.694 288.701 536.445 290.127 536.083 292.344C535.766 294.516 535.494 296.847 535.268 299.336L534.318 300.218C533.277 300.173 530.924 300.105 527.259 300.015C523.638 299.924 519.928 299.879 516.126 299.879C513.592 299.879 511.058 299.947 508.524 300.082C506.035 300.263 504.429 300.377 503.705 300.422L504.248 295.127ZM567.485 300.693C565.811 300.693 564.476 300.354 563.48 299.675C562.53 298.951 561.693 297.707 560.969 295.942L557.846 288.272H554.86V291.122C554.86 292.208 554.95 293 555.131 293.498C555.312 293.951 555.652 294.267 556.149 294.448C556.692 294.584 557.597 294.697 558.865 294.788L559.204 295.263L558.593 300.082C557.824 300.082 556.444 300.037 554.452 299.947C552.461 299.901 550.629 299.879 548.954 299.879C547.144 299.879 545.153 299.947 542.981 300.082C540.809 300.263 539.406 300.377 538.772 300.422L539.248 295.127C540.605 294.901 541.533 294.448 542.031 293.77C542.574 293.091 542.845 292.027 542.845 290.579V272.931C542.845 272.116 542.732 271.551 542.506 271.234C542.325 270.917 541.985 270.759 541.488 270.759L539.451 270.827L538.84 270.148L539.519 265.6L547.732 265.668C549.633 265.668 551.692 265.623 553.909 265.532C556.172 265.442 557.733 265.374 558.593 265.328C564.023 265.328 568.073 266.166 570.743 267.84C573.413 269.514 574.748 272.071 574.748 275.51C574.748 279.628 572.553 282.954 568.164 285.488L571.286 290.308C572.237 291.756 573.164 292.91 574.069 293.77C575.02 294.584 575.857 294.992 576.581 294.992L577.26 295.942L576.717 300.15L567.485 300.693ZM559.136 281.484C560.448 280.941 561.286 280.33 561.648 279.651C562.01 278.972 562.191 277.954 562.191 276.596C562.191 275.239 561.715 274.266 560.765 273.678C559.86 273.044 558.389 272.727 556.353 272.727C555.991 272.727 555.742 272.795 555.606 272.931C555.516 273.067 555.448 273.383 555.403 273.881C555.267 275.284 555.154 277.637 555.063 280.941L559.136 281.484ZM609.81 299.675L610.218 293.973C611.756 293.792 612.774 293.657 613.272 293.566C613.815 293.43 614.154 293.249 614.29 293.023C614.471 292.752 614.562 292.299 614.562 291.665L614.426 290.444L614.019 287.796L608.792 287.661C608.113 287.661 606.303 287.774 603.362 288L602.683 290.987C602.547 291.711 602.479 292.208 602.479 292.48C602.479 293.068 602.592 293.453 602.819 293.634C603.09 293.77 603.679 293.838 604.584 293.838H606.348L606.891 294.516L606.348 300.15C605.67 300.105 604.312 300.06 602.276 300.015C600.285 299.969 598.158 299.947 595.895 299.947L586.867 300.015L587.342 294.109C588.971 293.702 590.125 292.457 590.804 290.376L601.597 256.301L619.449 255.215L620.467 256.029C621.146 258.835 622.526 264.356 624.608 272.592C626.689 280.782 628.138 286.416 628.952 289.493C629.359 291.032 629.857 292.163 630.445 292.887C631.079 293.566 631.916 293.951 632.957 294.041L633.432 294.72L632.889 300.082C632.255 300.082 631.011 300.06 629.156 300.015C627.3 299.969 625.354 299.947 623.318 299.947C620.648 299.947 618.001 299.992 615.376 300.082C612.752 300.173 611.077 300.241 610.353 300.286L609.81 299.675ZM608.996 279.447C609.72 279.447 610.896 279.402 612.525 279.312L610.218 267.433H608.724L605.534 279.447H608.996ZM634.503 295.059C635.861 294.878 636.789 294.448 637.286 293.77C637.829 293.091 638.101 292.027 638.101 290.579V273.61C638.101 272.524 637.988 271.777 637.761 271.37C637.58 270.962 637.241 270.759 636.743 270.759L634.707 270.827L634.096 270.148L634.707 265.668H642.988C644.843 265.668 646.835 265.623 648.961 265.532C651.134 265.442 652.65 265.374 653.509 265.328C659.754 265.328 663.94 266.482 666.067 268.79C668.194 271.098 669.257 273.7 669.257 276.596C669.257 278.814 668.601 280.895 667.289 282.841C665.976 284.787 664.212 286.348 661.994 287.525C659.822 288.656 657.492 289.222 655.003 289.222H650.115V291.326C650.115 292.593 650.319 293.498 650.726 294.041C651.134 294.539 651.903 294.788 653.034 294.788L654.731 294.72L655.003 295.195L654.46 300.082C653.69 300.082 652.288 300.037 650.251 299.947C648.26 299.901 646.427 299.879 644.753 299.879C643.984 299.879 641.45 299.992 637.151 300.218L633.96 300.354L634.503 295.059ZM653.849 282.638C654.844 282.276 655.568 281.642 656.021 280.737C656.473 279.832 656.7 278.587 656.7 277.004C656.7 275.465 656.292 274.356 655.478 273.678C654.663 272.999 653.351 272.659 651.541 272.659C651.224 272.659 650.998 272.75 650.862 272.931C650.772 273.067 650.704 273.383 650.658 273.881L650.251 282.162L653.849 282.638ZM670.034 295.059C671.391 294.878 672.319 294.448 672.817 293.77C673.36 293.091 673.631 292.027 673.631 290.579V273.61C673.631 272.524 673.518 271.777 673.292 271.37C673.111 270.962 672.771 270.759 672.274 270.759L670.237 270.827L669.626 270.148L670.237 265.668H678.518C680.374 265.668 682.365 265.623 684.492 265.532C686.664 265.442 688.18 265.374 689.04 265.328C695.284 265.328 699.47 266.482 701.597 268.79C703.724 271.098 704.788 273.7 704.788 276.596C704.788 278.814 704.131 280.895 702.819 282.841C701.507 284.787 699.742 286.348 697.524 287.525C695.352 288.656 693.022 289.222 690.533 289.222H685.646V291.326C685.646 292.593 685.849 293.498 686.257 294.041C686.664 294.539 687.433 294.788 688.564 294.788L690.261 294.72L690.533 295.195L689.99 300.082C689.221 300.082 687.818 300.037 685.781 299.947C683.79 299.901 681.958 299.879 680.283 299.879C679.514 299.879 676.98 299.992 672.681 300.218L669.491 300.354L670.034 295.059ZM689.379 282.638C690.375 282.276 691.099 281.642 691.551 280.737C692.004 279.832 692.23 278.587 692.23 277.004C692.23 275.465 691.823 274.356 691.008 273.678C690.194 272.999 688.881 272.659 687.071 272.659C686.754 272.659 686.528 272.75 686.392 272.931C686.302 273.067 686.234 273.383 686.189 273.881L685.781 282.162L689.379 282.638Z" fill="white"/>
<line x1="40.0001" y1="282.394" x2="243.636" y2="282.394" stroke="white" stroke-width="1.21212"/>
<line x1="744.243" y1="282.394" x2="947.879" y2="282.394" stroke="white" stroke-width="1.21212"/>
<path d="M936.962 60.5757C926.739 50.2727 909.928 24.0909 924.474 1.78784C946.542 17.7979 944.058 42.4002 938.903 56.1227C941.607 50.5211 945.163 45.301 949.694 40.5757C956.035 23 974.898 -4.87883 999.626 24.2121C989.929 37.303 962.298 40.5757 949.694 40.5757C945.163 45.301 941.607 50.5211 938.903 56.1227C938.282 57.7764 937.623 59.2721 936.962 60.5757C933.93 68.3197 932.365 76.6928 931.973 85.4242C937.352 72.0909 955.626 47.1212 985.686 53.9091C980.584 63.202 962.699 82.5151 931.973 85.4242C932.365 76.6928 933.93 68.3197 936.962 60.5757Z" fill="#0CA332"/>
<path d="M931.973 153.909C912.356 125.229 906.899 121.788 931.973 85.4242M974.171 24.2121C963.965 28.54 955.912 34.0921 949.694 40.5757M936.962 60.5757C926.739 50.2727 909.928 24.0909 924.474 1.78784C949.201 19.7272 943.102 48.4545 936.962 60.5757ZM936.962 60.5757C933.93 68.3197 932.365 76.6928 931.973 85.4242M936.962 60.5757C939.821 53.2742 943.983 46.5319 949.694 40.5757M936.962 60.5757C935.83 50.0707 932.595 27.3636 928.717 20.5757M931.973 85.4242C937.352 72.0909 955.626 47.1212 985.686 53.9091C980.584 63.202 962.699 82.5151 931.973 85.4242ZM931.973 85.4242C942.2 76.3333 964.959 58.3939 974.171 59.3636M949.694 40.5757C962.298 40.5757 989.929 37.303 999.626 24.2121C974.898 -4.87883 956.035 23 949.694 40.5757Z" stroke="white" stroke-width="1.21212"/>
<mask id="path-6-outside-1_32_772" maskUnits="userSpaceOnUse" x="39.2121" y="83.303" width="921" height="148" fill="black">
<rect fill="white" x="39.2121" y="83.303" width="921" height="148"/>
<path d="M171.539 189.445L175.728 200.305L147.181 217.838C141.699 219.286 136.423 220.217 131.355 220.63C126.39 221.044 121.012 221.251 115.219 221.251C102.187 221.251 90.6537 218.613 80.6206 213.338C70.5874 208.063 62.7782 200.823 57.1927 191.617C51.7107 182.308 48.9697 171.758 48.9697 159.966C48.9697 147.864 53.0553 136.693 61.2266 126.453C69.5014 116.11 79.6897 107.99 91.7915 102.094C103.997 96.0953 115.581 93.0957 126.545 93.0957C133.372 93.0957 141.337 93.8715 150.439 95.423C159.644 96.9745 166.368 98.6294 170.608 100.388V141.348H150.749C146.508 131.832 141.543 124.902 135.855 120.558C130.269 116.11 124.166 113.886 117.547 113.886C111.651 113.886 106.221 115.593 101.256 119.006C96.3943 122.316 92.5155 126.919 89.6194 132.814C86.8266 138.71 85.4303 145.278 85.4303 152.519C85.4303 161.311 86.8266 169.327 89.6194 176.567C92.4121 183.704 96.7046 189.445 102.497 193.789C108.289 198.133 115.426 200.305 123.908 200.305H128.718C132.751 200.305 135.906 200.202 138.182 199.995V173.464L112.737 167.724L118.943 155.311H186.279V166.327L171.539 179.205V189.445ZM248.799 158.104C245.903 158.104 243.11 159.035 240.421 160.897V199.84L265.245 205.891L259.039 218.303H195.582V207.287L209.39 195.185V164.931L195.582 155.932V144.916L231.422 131.108L237.628 147.244L250.816 133.745C252.678 132.918 255.005 132.504 257.798 132.504C264.521 132.504 270.158 133.901 274.709 136.693C279.26 139.486 282.363 143.365 284.018 148.33L266.486 170.361H254.384C254.384 165.913 253.97 162.759 253.143 160.897C252.316 159.035 250.867 158.104 248.799 158.104ZM340.664 132.504C348.732 132.504 355.921 134.314 362.23 137.934C368.643 141.451 373.608 146.364 377.125 152.674C380.745 158.88 382.555 165.81 382.555 173.464C382.555 181.739 379.814 189.445 374.332 196.582C368.85 203.719 361.972 209.408 353.697 213.648C345.422 217.786 337.406 219.854 329.648 219.854C321.581 219.854 314.34 218.096 307.927 214.579C301.618 210.959 296.653 206.046 293.033 199.84C289.516 193.53 287.758 186.549 287.758 178.894C287.758 170.62 290.499 162.914 295.981 155.777C301.463 148.64 308.341 143.003 316.616 138.865C324.89 134.625 332.907 132.504 340.664 132.504ZM331.665 153.294C328.356 153.294 325.77 154.846 323.908 157.949C322.149 160.949 321.27 165.448 321.27 171.447C321.27 179.515 322.77 186.135 325.77 191.307C328.873 196.478 333.165 199.064 338.647 199.064C341.957 199.064 344.491 197.513 346.25 194.41C348.111 191.307 349.042 186.756 349.042 180.756C349.042 172.688 347.491 166.12 344.388 161.052C341.388 155.88 337.147 153.294 331.665 153.294ZM540.645 145.227L503.564 218.458H479.36L467.103 188.824L450.812 218.458H426.608L404.422 164.465L388.751 155.311V144.296L427.694 131.263L433.59 154.691L449.416 192.858L460.276 172.223L457.018 164.31L441.348 155.156V144.141L480.291 131.108L486.187 154.536L501.857 192.082L516.441 161.828L492.703 146.468L498.909 134.056L540.645 134.211V145.227ZM624.467 93.2509C630.88 93.2509 638.327 94.0266 646.808 95.5781C655.29 97.1297 661.496 98.7846 665.427 100.543V135.297H645.567C641.74 127.953 637.241 122.574 632.069 119.161C627.001 115.748 621.467 114.041 615.468 114.041C610.4 114.041 605.745 115.748 601.504 119.161C597.367 122.471 594.057 127.074 591.574 132.97C589.195 138.865 588.006 145.433 588.006 152.674C588.006 160.845 589.247 168.344 591.73 175.171C594.212 181.894 597.987 187.273 603.056 191.307C608.124 195.341 614.382 197.358 621.829 197.358C631.655 197.358 645.515 193.013 663.41 184.325L670.547 195.806L641.999 217.993C637.034 219.441 632.276 220.372 627.725 220.785C623.277 221.199 618.416 221.406 613.141 221.406C601.039 221.406 590.333 218.768 581.024 213.493C571.715 208.218 564.475 200.978 559.303 191.772C554.131 182.463 551.545 171.913 551.545 160.121C551.545 148.019 555.372 136.848 563.027 126.608C570.784 116.265 580.352 108.145 591.73 102.25C603.211 96.2505 614.123 93.2509 624.467 93.2509ZM775.224 218.303H736.436V204.805L718.904 218.613C716.835 219.441 714.25 219.854 711.147 219.854C700.596 219.854 692.942 217.32 688.184 212.252C683.53 207.08 681.202 200.874 681.202 193.634C681.202 189.497 682.392 185.463 684.771 181.532C687.15 177.498 690.615 173.774 695.166 170.361H736.436C736.126 165.81 734.574 162.397 731.782 160.121C728.989 157.742 725.472 156.553 721.231 156.553C714.094 156.553 703.648 158.725 689.891 163.069L685.236 152.519L706.492 135.452C712.181 133.487 719.008 132.504 726.972 132.504C739.798 132.504 749.779 135.349 756.916 141.038C764.053 146.623 767.622 154.846 767.622 165.707V200.461L781.43 205.891L775.224 218.303ZM720.611 194.254C725.162 194.254 730.437 192.496 736.436 188.979V182.928H712.853C712.336 183.859 711.974 184.687 711.767 185.411C711.56 186.031 711.457 186.859 711.457 187.893C711.457 189.859 712.233 191.41 713.784 192.548C715.439 193.686 717.766 194.254 720.766 194.254H720.611ZM830.056 196.892C830.056 195.444 828.866 193.892 826.487 192.238C824.212 190.479 820.54 188.1 815.471 185.101C807.3 180.343 800.939 176.05 796.388 172.223C791.837 168.396 789.561 164.155 789.561 159.501C789.561 155.777 791.475 151.795 795.302 147.554C799.129 143.313 803.783 139.745 809.265 136.848C814.851 133.952 819.971 132.504 824.625 132.504C830.314 132.504 836.934 133.125 844.485 134.366C852.035 135.504 857.517 136.797 860.931 138.245V165.241H848.829C846.347 160.897 843.295 157.484 839.675 155.001C836.055 152.415 832.383 151.122 828.659 151.122C827.211 151.122 826.073 151.536 825.246 152.364C824.522 153.191 824.16 154.225 824.16 155.467C824.16 157.122 825.349 158.88 827.728 160.742C830.211 162.5 834.09 164.931 839.365 168.034C847.329 172.585 853.535 176.722 857.983 180.446C862.431 184.17 864.654 188.307 864.654 192.858C864.654 196.685 862.689 200.719 858.759 204.96C854.828 209.097 850.018 212.614 844.33 215.51C838.641 218.406 833.417 219.854 828.659 219.854C822.66 219.854 815.523 219.286 807.248 218.148C798.974 216.907 793.026 215.562 789.406 214.114V185.566H801.508C804.404 190.427 807.972 194.254 812.213 197.047C816.454 199.84 820.643 201.236 824.78 201.236C826.332 201.236 827.573 200.823 828.504 199.995C829.538 199.168 830.056 198.133 830.056 196.892ZM931.772 218.613C927.531 219.441 922.566 219.854 916.877 219.854C906.12 219.854 898.259 217.631 893.294 213.183C888.33 208.632 885.847 201.65 885.847 192.238V151.278H869.091V141.813L904.776 104.422H916.877V138.71H944.805V151.278H916.877V189.445C916.877 195.754 920.911 198.909 928.979 198.909C931.048 198.909 933.065 198.702 935.03 198.288C937.099 197.771 939.685 196.892 942.788 195.651L947.442 206.201L931.772 218.613Z"/>
</mask>
<path d="M171.539 189.445L175.728 200.305L147.181 217.838C141.699 219.286 136.423 220.217 131.355 220.63C126.39 221.044 121.012 221.251 115.219 221.251C102.187 221.251 90.6537 218.613 80.6206 213.338C70.5874 208.063 62.7782 200.823 57.1927 191.617C51.7107 182.308 48.9697 171.758 48.9697 159.966C48.9697 147.864 53.0553 136.693 61.2266 126.453C69.5014 116.11 79.6897 107.99 91.7915 102.094C103.997 96.0953 115.581 93.0957 126.545 93.0957C133.372 93.0957 141.337 93.8715 150.439 95.423C159.644 96.9745 166.368 98.6294 170.608 100.388V141.348H150.749C146.508 131.832 141.543 124.902 135.855 120.558C130.269 116.11 124.166 113.886 117.547 113.886C111.651 113.886 106.221 115.593 101.256 119.006C96.3943 122.316 92.5155 126.919 89.6194 132.814C86.8266 138.71 85.4303 145.278 85.4303 152.519C85.4303 161.311 86.8266 169.327 89.6194 176.567C92.4121 183.704 96.7046 189.445 102.497 193.789C108.289 198.133 115.426 200.305 123.908 200.305H128.718C132.751 200.305 135.906 200.202 138.182 199.995V173.464L112.737 167.724L118.943 155.311H186.279V166.327L171.539 179.205V189.445ZM248.799 158.104C245.903 158.104 243.11 159.035 240.421 160.897V199.84L265.245 205.891L259.039 218.303H195.582V207.287L209.39 195.185V164.931L195.582 155.932V144.916L231.422 131.108L237.628 147.244L250.816 133.745C252.678 132.918 255.005 132.504 257.798 132.504C264.521 132.504 270.158 133.901 274.709 136.693C279.26 139.486 282.363 143.365 284.018 148.33L266.486 170.361H254.384C254.384 165.913 253.97 162.759 253.143 160.897C252.316 159.035 250.867 158.104 248.799 158.104ZM340.664 132.504C348.732 132.504 355.921 134.314 362.23 137.934C368.643 141.451 373.608 146.364 377.125 152.674C380.745 158.88 382.555 165.81 382.555 173.464C382.555 181.739 379.814 189.445 374.332 196.582C368.85 203.719 361.972 209.408 353.697 213.648C345.422 217.786 337.406 219.854 329.648 219.854C321.581 219.854 314.34 218.096 307.927 214.579C301.618 210.959 296.653 206.046 293.033 199.84C289.516 193.53 287.758 186.549 287.758 178.894C287.758 170.62 290.499 162.914 295.981 155.777C301.463 148.64 308.341 143.003 316.616 138.865C324.89 134.625 332.907 132.504 340.664 132.504ZM331.665 153.294C328.356 153.294 325.77 154.846 323.908 157.949C322.149 160.949 321.27 165.448 321.27 171.447C321.27 179.515 322.77 186.135 325.77 191.307C328.873 196.478 333.165 199.064 338.647 199.064C341.957 199.064 344.491 197.513 346.25 194.41C348.111 191.307 349.042 186.756 349.042 180.756C349.042 172.688 347.491 166.12 344.388 161.052C341.388 155.88 337.147 153.294 331.665 153.294ZM540.645 145.227L503.564 218.458H479.36L467.103 188.824L450.812 218.458H426.608L404.422 164.465L388.751 155.311V144.296L427.694 131.263L433.59 154.691L449.416 192.858L460.276 172.223L457.018 164.31L441.348 155.156V144.141L480.291 131.108L486.187 154.536L501.857 192.082L516.441 161.828L492.703 146.468L498.909 134.056L540.645 134.211V145.227ZM624.467 93.2509C630.88 93.2509 638.327 94.0266 646.808 95.5781C655.29 97.1297 661.496 98.7846 665.427 100.543V135.297H645.567C641.74 127.953 637.241 122.574 632.069 119.161C627.001 115.748 621.467 114.041 615.468 114.041C610.4 114.041 605.745 115.748 601.504 119.161C597.367 122.471 594.057 127.074 591.574 132.97C589.195 138.865 588.006 145.433 588.006 152.674C588.006 160.845 589.247 168.344 591.73 175.171C594.212 181.894 597.987 187.273 603.056 191.307C608.124 195.341 614.382 197.358 621.829 197.358C631.655 197.358 645.515 193.013 663.41 184.325L670.547 195.806L641.999 217.993C637.034 219.441 632.276 220.372 627.725 220.785C623.277 221.199 618.416 221.406 613.141 221.406C601.039 221.406 590.333 218.768 581.024 213.493C571.715 208.218 564.475 200.978 559.303 191.772C554.131 182.463 551.545 171.913 551.545 160.121C551.545 148.019 555.372 136.848 563.027 126.608C570.784 116.265 580.352 108.145 591.73 102.25C603.211 96.2505 614.123 93.2509 624.467 93.2509ZM775.224 218.303H736.436V204.805L718.904 218.613C716.835 219.441 714.25 219.854 711.147 219.854C700.596 219.854 692.942 217.32 688.184 212.252C683.53 207.08 681.202 200.874 681.202 193.634C681.202 189.497 682.392 185.463 684.771 181.532C687.15 177.498 690.615 173.774 695.166 170.361H736.436C736.126 165.81 734.574 162.397 731.782 160.121C728.989 157.742 725.472 156.553 721.231 156.553C714.094 156.553 703.648 158.725 689.891 163.069L685.236 152.519L706.492 135.452C712.181 133.487 719.008 132.504 726.972 132.504C739.798 132.504 749.779 135.349 756.916 141.038C764.053 146.623 767.622 154.846 767.622 165.707V200.461L781.43 205.891L775.224 218.303ZM720.611 194.254C725.162 194.254 730.437 192.496 736.436 188.979V182.928H712.853C712.336 183.859 711.974 184.687 711.767 185.411C711.56 186.031 711.457 186.859 711.457 187.893C711.457 189.859 712.233 191.41 713.784 192.548C715.439 193.686 717.766 194.254 720.766 194.254H720.611ZM830.056 196.892C830.056 195.444 828.866 193.892 826.487 192.238C824.212 190.479 820.54 188.1 815.471 185.101C807.3 180.343 800.939 176.05 796.388 172.223C791.837 168.396 789.561 164.155 789.561 159.501C789.561 155.777 791.475 151.795 795.302 147.554C799.129 143.313 803.783 139.745 809.265 136.848C814.851 133.952 819.971 132.504 824.625 132.504C830.314 132.504 836.934 133.125 844.485 134.366C852.035 135.504 857.517 136.797 860.931 138.245V165.241H848.829C846.347 160.897 843.295 157.484 839.675 155.001C836.055 152.415 832.383 151.122 828.659 151.122C827.211 151.122 826.073 151.536 825.246 152.364C824.522 153.191 824.16 154.225 824.16 155.467C824.16 157.122 825.349 158.88 827.728 160.742C830.211 162.5 834.09 164.931 839.365 168.034C847.329 172.585 853.535 176.722 857.983 180.446C862.431 184.17 864.654 188.307 864.654 192.858C864.654 196.685 862.689 200.719 858.759 204.96C854.828 209.097 850.018 212.614 844.33 215.51C838.641 218.406 833.417 219.854 828.659 219.854C822.66 219.854 815.523 219.286 807.248 218.148C798.974 216.907 793.026 215.562 789.406 214.114V185.566H801.508C804.404 190.427 807.972 194.254 812.213 197.047C816.454 199.84 820.643 201.236 824.78 201.236C826.332 201.236 827.573 200.823 828.504 199.995C829.538 199.168 830.056 198.133 830.056 196.892ZM931.772 218.613C927.531 219.441 922.566 219.854 916.877 219.854C906.12 219.854 898.259 217.631 893.294 213.183C888.33 208.632 885.847 201.65 885.847 192.238V151.278H869.091V141.813L904.776 104.422H916.877V138.71H944.805V151.278H916.877V189.445C916.877 195.754 920.911 198.909 928.979 198.909C931.048 198.909 933.065 198.702 935.03 198.288C937.099 197.771 939.685 196.892 942.788 195.651L947.442 206.201L931.772 218.613Z" fill="#0CA332"/>
<path d="M171.539 189.445H161.842V191.25L162.492 192.934L171.539 189.445ZM175.728 200.305L180.803 208.569L187.68 204.345L184.776 196.816L175.728 200.305ZM147.181 217.838L149.657 227.213L151.038 226.848L152.255 226.101L147.181 217.838ZM131.355 220.63L130.566 210.965L130.558 210.966L130.55 210.967L131.355 220.63ZM80.6206 213.338L76.1079 221.921L80.6206 213.338ZM57.1927 191.617L48.8369 196.538L48.8693 196.592L48.9024 196.647L57.1927 191.617ZM61.2266 126.453L53.6546 120.396L53.6471 120.405L61.2266 126.453ZM91.7915 102.094L96.0385 110.812L96.0537 110.805L96.069 110.797L91.7915 102.094ZM150.439 95.423L148.809 104.982L148.818 104.984L148.827 104.985L150.439 95.423ZM170.608 100.388H180.305V93.911L174.323 91.4303L170.608 100.388ZM170.608 141.348V151.045H180.305V141.348H170.608ZM150.749 141.348L141.892 145.295L144.454 151.045H150.749V141.348ZM135.855 120.558L129.814 128.143L129.891 128.205L129.969 128.264L135.855 120.558ZM101.256 119.006L106.713 127.022L106.731 127.009L106.749 126.997L101.256 119.006ZM89.6194 132.814L80.9158 128.539L80.8854 128.601L80.8558 128.663L89.6194 132.814ZM89.6194 176.567L80.5721 180.057L80.5806 180.079L80.5891 180.101L89.6194 176.567ZM102.497 193.789L96.6788 201.547L96.6788 201.547L102.497 193.789ZM138.182 199.995L139.06 209.652L147.879 208.851V199.995H138.182ZM138.182 173.464H147.879V165.711L140.316 164.005L138.182 173.464ZM112.737 167.724L104.064 163.387L98.5279 174.459L110.603 177.183L112.737 167.724ZM118.943 155.311V145.614H112.95L110.27 150.975L118.943 155.311ZM186.279 155.311H195.976V145.614H186.279V155.311ZM186.279 166.327L192.659 173.63L195.976 170.732V166.327H186.279ZM171.539 179.205L165.159 171.902L161.842 174.8V179.205H171.539ZM171.539 189.445L162.492 192.934L166.681 203.795L175.728 200.305L184.776 196.816L180.587 185.955L171.539 189.445ZM175.728 200.305L170.654 192.042L142.106 209.574L147.181 217.838L152.255 226.101L180.803 208.569L175.728 200.305ZM147.181 217.838L144.704 208.462C139.713 209.781 135.004 210.603 130.566 210.965L131.355 220.63L132.144 230.295C137.843 229.83 143.684 228.791 149.657 227.213L147.181 217.838ZM131.355 220.63L130.55 210.967C125.892 211.355 120.785 211.554 115.219 211.554V221.251V230.948C121.238 230.948 126.889 230.733 132.16 230.294L131.355 220.63ZM115.219 221.251V211.554C103.522 211.554 93.5791 209.196 85.1333 204.755L80.6206 213.338L76.1079 221.921C87.7283 228.031 100.851 230.948 115.219 230.948V221.251ZM80.6206 213.338L85.1333 204.755C76.5728 200.254 70.1062 194.206 65.483 186.587L57.1927 191.617L48.9024 196.647C55.4501 207.439 64.6021 215.872 76.1079 221.921L80.6206 213.338ZM57.1927 191.617L65.5485 186.696C61.0239 179.013 58.6666 170.19 58.6666 159.966H48.9697H39.2727C39.2727 173.325 42.3975 185.603 48.8369 196.538L57.1927 191.617ZM48.9697 159.966H58.6666C58.6666 150.248 61.8848 141.175 68.8062 132.502L61.2266 126.453L53.6471 120.405C44.2259 132.211 39.2727 145.48 39.2727 159.966H48.9697ZM61.2266 126.453L68.7987 132.511C76.1609 123.308 85.2067 116.089 96.0385 110.812L91.7915 102.094L87.5445 93.377C74.1727 99.8915 62.8419 108.911 53.6546 120.396L61.2266 126.453ZM91.7915 102.094L96.069 110.797C107.256 105.298 117.378 102.793 126.545 102.793V93.0957V83.3987C113.785 83.3987 100.737 86.8924 87.514 93.392L91.7915 102.094ZM126.545 93.0957V102.793C132.674 102.793 140.071 103.493 148.809 104.982L150.439 95.423L152.068 85.8639C142.602 84.2503 134.07 83.3987 126.545 83.3987V93.0957ZM150.439 95.423L148.827 104.985C157.892 106.513 163.715 108.027 166.894 109.345L170.608 100.388L174.323 91.4303C169.02 89.2319 161.397 87.4362 152.05 85.8609L150.439 95.423ZM170.608 100.388H160.911V141.348H170.608H180.305V100.388H170.608ZM170.608 141.348V131.651H150.749V141.348V151.045H170.608V141.348ZM150.749 141.348L159.606 137.401C154.985 127.032 149.173 118.527 141.74 112.851L135.855 120.558L129.969 128.264C133.914 131.277 138.031 136.632 141.892 145.295L150.749 141.348ZM135.855 120.558L141.895 112.972C134.737 107.272 126.538 104.189 117.547 104.189V113.886V123.583C121.795 123.583 125.801 124.948 129.814 128.143L135.855 120.558ZM117.547 113.886V104.189C109.644 104.189 102.306 106.517 95.7621 111.015L101.256 119.006L106.749 126.997C110.135 124.669 113.658 123.583 117.547 123.583V113.886ZM101.256 119.006L95.7984 110.991C89.3927 115.352 84.4637 121.317 80.9158 128.539L89.6194 132.814L98.3229 137.09C100.567 132.521 103.396 129.28 106.713 127.022L101.256 119.006ZM89.6194 132.814L80.8558 128.663C77.3838 135.993 75.7333 144.002 75.7333 152.519H85.4303H95.1272C95.1272 146.555 96.2695 141.427 98.3829 136.966L89.6194 132.814ZM85.4303 152.519H75.7333C75.7333 162.347 77.2967 171.565 80.5721 180.057L89.6194 176.567L98.6667 173.078C96.3566 167.088 95.1272 160.275 95.1272 152.519H85.4303ZM89.6194 176.567L80.5891 180.101C83.9988 188.814 89.3581 196.056 96.6788 201.547L102.497 193.789L108.315 186.031C104.051 182.833 100.825 178.594 98.6496 173.034L89.6194 176.567ZM102.497 193.789L96.6788 201.547C104.425 207.356 113.701 210.002 123.908 210.002V200.305V190.608C117.152 190.608 112.153 188.91 108.315 186.031L102.497 193.789ZM123.908 200.305V210.002H128.718V200.305V190.608H123.908V200.305ZM128.718 200.305V210.002C132.86 210.002 136.353 209.898 139.06 209.652L138.182 199.995L137.304 190.338C135.46 190.506 132.643 190.608 128.718 190.608V200.305ZM138.182 199.995H147.879V173.464H138.182H128.485V199.995H138.182ZM138.182 173.464L140.316 164.005L114.871 158.264L112.737 167.724L110.603 177.183L136.048 182.923L138.182 173.464ZM112.737 167.724L121.41 172.06L127.616 159.648L118.943 155.311L110.27 150.975L104.064 163.387L112.737 167.724ZM118.943 155.311V165.008H186.279V155.311V145.614H118.943V155.311ZM186.279 155.311H176.582V166.327H186.279H195.976V155.311H186.279ZM186.279 166.327L179.899 159.025L165.159 171.902L171.539 179.205L177.919 186.507L192.659 173.63L186.279 166.327ZM171.539 179.205H161.842V189.445H171.539H181.236V179.205H171.539ZM240.421 160.897L234.901 152.924L230.724 155.816V160.897H240.421ZM240.421 199.84H230.724V207.457L238.124 209.261L240.421 199.84ZM265.245 205.891L273.918 210.227L279.357 199.35L267.541 196.47L265.245 205.891ZM259.039 218.303V228H265.032L267.712 222.64L259.039 218.303ZM195.582 218.303H185.885V228H195.582V218.303ZM195.582 207.287L189.19 199.995L185.885 202.892V207.287H195.582ZM209.39 195.185L215.782 202.478L219.087 199.581V195.185H209.39ZM209.39 164.931H219.087V159.676L214.685 156.807L209.39 164.931ZM195.582 155.932H185.885V161.187L190.287 164.056L195.582 155.932ZM195.582 144.916L192.096 135.868L185.885 138.261V144.916H195.582ZM231.422 131.108L240.472 127.627L236.989 118.571L227.936 122.059L231.422 131.108ZM237.628 147.244L228.577 150.725L234.002 164.83L244.564 154.02L237.628 147.244ZM250.816 133.745L246.877 124.884L245.179 125.639L243.88 126.969L250.816 133.745ZM274.709 136.693L269.637 144.958L269.637 144.958L274.709 136.693ZM284.018 148.33L291.606 154.368L294.881 150.253L293.217 145.263L284.018 148.33ZM266.486 170.361V180.058H271.162L274.074 176.399L266.486 170.361ZM254.384 170.361H244.687V180.058H254.384V170.361ZM253.143 160.897L244.282 164.835L244.282 164.835L253.143 160.897ZM248.799 158.104V148.407C243.681 148.407 238.994 150.09 234.901 152.924L240.421 160.897L245.94 168.87C247.226 167.98 248.124 167.801 248.799 167.801V158.104ZM240.421 160.897H230.724V199.84H240.421H250.118V160.897H240.421ZM240.421 199.84L238.124 209.261L262.948 215.312L265.245 205.891L267.541 196.47L242.717 190.419L240.421 199.84ZM265.245 205.891L256.572 201.554L250.366 213.966L259.039 218.303L267.712 222.64L273.918 210.227L265.245 205.891ZM259.039 218.303V208.606H195.582V218.303V228H259.039V218.303ZM195.582 218.303H205.279V207.287H195.582H185.885V218.303H195.582ZM195.582 207.287L201.973 214.58L215.782 202.478L209.39 195.185L202.999 187.893L189.19 199.995L195.582 207.287ZM209.39 195.185H219.087V164.931H209.39H199.693V195.185H209.39ZM209.39 164.931L214.685 156.807L200.876 147.808L195.582 155.932L190.287 164.056L204.096 173.055L209.39 164.931ZM195.582 155.932H205.279V144.916H195.582H185.885V155.932H195.582ZM195.582 144.916L199.068 153.965L234.908 140.156L231.422 131.108L227.936 122.059L192.096 135.868L195.582 144.916ZM231.422 131.108L222.371 134.589L228.577 150.725L237.628 147.244L246.678 143.763L240.472 127.627L231.422 131.108ZM237.628 147.244L244.564 154.02L257.752 140.522L250.816 133.745L243.88 126.969L230.692 140.467L237.628 147.244ZM250.816 133.745L254.754 142.607C255.007 142.494 255.889 142.201 257.798 142.201V132.504V122.807C254.121 122.807 250.348 123.342 246.877 124.884L250.816 133.745ZM257.798 132.504V142.201C263.19 142.201 266.962 143.316 269.637 144.958L274.709 136.693L279.781 128.428C273.354 124.485 265.851 122.807 257.798 122.807V132.504ZM274.709 136.693L269.637 144.958C272.287 146.584 273.901 148.643 274.819 151.396L284.018 148.33L293.217 145.263C290.825 138.086 286.233 132.388 279.781 128.428L274.709 136.693ZM284.018 148.33L276.43 142.292L258.898 164.323L266.486 170.361L274.074 176.399L291.606 154.368L284.018 148.33ZM266.486 170.361V160.664H254.384V170.361V180.058H266.486V170.361ZM254.384 170.361H264.081C264.081 165.789 263.726 160.834 262.004 156.959L253.143 160.897L244.282 164.835C244.167 164.577 244.314 164.81 244.459 165.92C244.595 166.952 244.687 168.407 244.687 170.361H254.384ZM253.143 160.897L262.004 156.959C260.966 154.622 259.269 152.31 256.68 150.645C254.101 148.988 251.313 148.407 248.799 148.407V158.104V167.801C248.353 167.801 247.324 167.686 246.193 166.959C245.052 166.226 244.493 165.31 244.282 164.835L253.143 160.897ZM362.23 137.934L357.404 146.345L357.486 146.392L357.568 146.437L362.23 137.934ZM377.125 152.674L368.655 157.395L368.701 157.478L368.749 157.56L377.125 152.674ZM374.332 196.582L382.022 202.489L382.022 202.489L374.332 196.582ZM353.697 213.648L358.034 222.322L358.077 222.3L358.12 222.278L353.697 213.648ZM307.927 214.579L303.101 222.99L303.183 223.037L303.265 223.082L307.927 214.579ZM293.033 199.84L284.563 204.561L284.609 204.644L284.657 204.726L293.033 199.84ZM295.981 155.777L303.671 161.684L303.671 161.684L295.981 155.777ZM316.616 138.865L320.952 147.539L320.995 147.517L321.038 147.495L316.616 138.865ZM323.908 157.949L315.593 152.96L315.567 153.002L315.542 153.045L323.908 157.949ZM325.77 191.307L317.381 196.172L317.418 196.234L317.455 196.296L325.77 191.307ZM346.25 194.41L337.935 189.421L337.873 189.524L337.813 189.629L346.25 194.41ZM344.388 161.052L336 165.917L336.058 166.017L336.118 166.115L344.388 161.052ZM340.664 132.504V142.201C347.228 142.201 352.719 143.657 357.404 146.345L362.23 137.934L367.056 129.524C359.122 124.971 350.236 122.807 340.664 122.807V132.504ZM362.23 137.934L357.568 146.437C362.402 149.088 366.038 152.7 368.655 157.395L377.125 152.674L385.595 147.953C381.178 140.029 374.884 133.814 366.893 129.432L362.23 137.934ZM377.125 152.674L368.749 157.56C371.447 162.186 372.858 167.411 372.858 173.464H382.555H392.252C392.252 164.209 390.043 155.574 385.501 147.788L377.125 152.674ZM382.555 173.464H372.858C372.858 179.412 370.944 185.074 366.642 190.675L374.332 196.582L382.022 202.489C388.685 193.815 392.252 184.066 392.252 173.464H382.555ZM374.332 196.582L366.642 190.675C362.064 196.635 356.315 201.41 349.274 205.019L353.697 213.648L358.12 222.278C367.628 217.405 375.637 210.802 382.022 202.489L374.332 196.582ZM353.697 213.648L349.36 204.975C342.175 208.568 335.637 210.158 329.648 210.158V219.854V229.551C339.175 229.551 348.669 227.004 358.034 222.322L353.697 213.648ZM329.648 219.854V210.158C323.039 210.158 317.43 208.731 312.59 206.077L307.927 214.579L303.265 223.082C311.25 227.461 320.122 229.551 329.648 229.551V219.854ZM307.927 214.579L312.753 206.169C307.896 203.381 304.163 199.676 301.409 194.954L293.033 199.84L284.657 204.726C289.143 212.416 295.34 218.537 303.101 222.99L307.927 214.579ZM293.033 199.84L301.503 195.119C298.839 190.339 297.454 184.998 297.454 178.894H287.758H278.061C278.061 188.099 280.193 196.722 284.563 204.561L293.033 199.84ZM287.758 178.894H297.454C297.454 172.947 299.369 167.284 303.671 161.684L295.981 155.777L288.29 149.87C281.628 158.544 278.061 168.293 278.061 178.894H287.758ZM295.981 155.777L303.671 161.684C308.233 155.744 313.952 151.039 320.952 147.539L316.616 138.865L312.279 130.192C302.729 134.967 294.692 141.536 288.29 149.87L295.981 155.777ZM316.616 138.865L321.038 147.495C328.214 143.818 334.721 142.201 340.664 142.201V132.504V122.807C331.092 122.807 321.567 125.432 312.193 130.236L316.616 138.865ZM331.665 153.294V143.598C324.583 143.598 319.01 147.265 315.593 152.96L323.908 157.949L332.223 162.938C332.363 162.704 332.449 162.614 332.451 162.612C332.452 162.611 332.434 162.63 332.395 162.661C332.356 162.692 332.302 162.732 332.233 162.773C332.085 162.862 331.926 162.926 331.787 162.963C331.652 162.998 331.6 162.991 331.665 162.991V153.294ZM323.908 157.949L315.542 153.045C312.489 158.254 311.573 164.818 311.573 171.447H321.27H330.967C330.967 166.078 331.81 163.643 332.273 162.853L323.908 157.949ZM321.27 171.447H311.573C311.573 180.649 313.276 189.093 317.381 196.172L325.77 191.307L334.158 186.441C332.264 183.176 330.967 178.381 330.967 171.447H321.27ZM325.77 191.307L317.455 196.296C322.099 204.036 329.367 208.761 338.647 208.761V199.064V189.367C336.963 189.367 335.647 188.921 334.085 186.318L325.77 191.307ZM338.647 199.064V208.761C345.769 208.761 351.37 205.043 354.686 199.19L346.25 194.41L337.813 189.629C337.694 189.839 337.632 189.9 337.657 189.872C337.688 189.839 337.789 189.74 337.967 189.63C338.148 189.52 338.335 189.444 338.496 189.401C338.65 189.36 338.713 189.367 338.647 189.367V199.064ZM346.25 194.41L354.565 199.399C357.745 194.099 358.739 187.482 358.739 180.756H349.042H339.345C339.345 186.029 338.478 188.514 337.935 189.421L346.25 194.41ZM349.042 180.756H358.739C358.739 171.519 356.971 163.033 352.658 155.989L344.388 161.052L336.118 166.115C338.011 169.207 339.345 173.858 339.345 180.756H349.042ZM344.388 161.052L352.776 156.187C348.233 148.353 340.969 143.598 331.665 143.598V153.294V162.991C333.326 162.991 334.544 163.407 336 165.917L344.388 161.052ZM540.645 145.227L549.296 149.607L550.342 147.542V145.227H540.645ZM503.564 218.458V228.155H509.523L512.215 222.839L503.564 218.458ZM479.36 218.458L470.399 222.164L472.877 228.155H479.36V218.458ZM467.103 188.824L476.064 185.118L468.34 166.445L458.605 184.153L467.103 188.824ZM450.812 218.458V228.155H456.547L459.31 223.13L450.812 218.458ZM426.608 218.458L417.639 222.144L420.109 228.155H426.608V218.458ZM404.422 164.465L413.391 160.78L412.145 157.747L409.313 156.092L404.422 164.465ZM388.751 155.311H379.054V160.877L383.86 163.684L388.751 155.311ZM388.751 144.296L385.674 135.1L379.054 137.315V144.296H388.751ZM427.694 131.263L437.098 128.896L434.544 118.745L424.617 122.067L427.694 131.263ZM433.59 154.691L424.186 157.057L424.36 157.748L424.633 158.405L433.59 154.691ZM449.416 192.858L440.458 196.572L448.373 215.66L457.997 197.374L449.416 192.858ZM460.276 172.223L468.857 176.739L470.97 172.725L469.243 168.531L460.276 172.223ZM457.018 164.31L465.985 160.618L464.738 157.589L461.909 155.937L457.018 164.31ZM441.348 155.156H431.651V160.722L436.457 163.529L441.348 155.156ZM441.348 144.141L438.27 134.945L431.651 137.16V144.141H441.348ZM480.291 131.108L489.695 128.741L487.14 118.59L477.213 121.912L480.291 131.108ZM486.187 154.536L476.783 156.902L476.959 157.603L477.238 158.271L486.187 154.536ZM501.857 192.082L492.908 195.817L501.22 215.734L510.592 196.293L501.857 192.082ZM516.441 161.828L525.176 166.039L528.89 158.333L521.709 153.687L516.441 161.828ZM492.703 146.468L484.03 142.131L480.148 149.894L487.435 154.609L492.703 146.468ZM498.909 134.056L498.945 124.359L492.927 124.336L490.236 129.719L498.909 134.056ZM540.645 134.211H550.342V124.55L540.681 124.514L540.645 134.211ZM540.645 145.227L531.994 140.846L494.912 214.078L503.564 218.458L512.215 222.839L549.296 149.607L540.645 145.227ZM503.564 218.458V208.761H479.36V218.458V228.155H503.564V218.458ZM479.36 218.458L488.321 214.752L476.064 185.118L467.103 188.824L458.142 192.53L470.399 222.164L479.36 218.458ZM467.103 188.824L458.605 184.153L442.314 213.787L450.812 218.458L459.31 223.13L475.601 193.496L467.103 188.824ZM450.812 218.458V208.761H426.608V218.458V228.155H450.812V218.458ZM426.608 218.458L435.578 214.772L413.391 160.78L404.422 164.465L395.453 168.151L417.639 222.144L426.608 218.458ZM404.422 164.465L409.313 156.092L393.643 146.938L388.751 155.311L383.86 163.684L399.531 172.838L404.422 164.465ZM388.751 155.311H398.448V144.296H388.751H379.054V155.311H388.751ZM388.751 144.296L391.829 153.491L430.772 140.459L427.694 131.263L424.617 122.067L385.674 135.1L388.751 144.296ZM427.694 131.263L418.291 133.629L424.186 157.057L433.59 154.691L442.994 152.324L437.098 128.896L427.694 131.263ZM433.59 154.691L424.633 158.405L440.458 196.572L449.416 192.858L458.373 189.144L442.548 150.977L433.59 154.691ZM449.416 192.858L457.997 197.374L468.857 176.739L460.276 172.223L451.695 167.707L440.835 188.342L449.416 192.858ZM460.276 172.223L469.243 168.531L465.985 160.618L457.018 164.31L448.052 168.002L451.31 175.915L460.276 172.223ZM457.018 164.31L461.909 155.937L446.239 146.783L441.348 155.156L436.457 163.529L452.127 172.683L457.018 164.31ZM441.348 155.156H451.045V144.141H441.348H431.651V155.156H441.348ZM441.348 144.141L444.425 153.336L483.368 140.304L480.291 131.108L477.213 121.912L438.27 134.945L441.348 144.141ZM480.291 131.108L470.887 133.474L476.783 156.902L486.187 154.536L495.59 152.169L489.695 128.741L480.291 131.108ZM486.187 154.536L477.238 158.271L492.908 195.817L501.857 192.082L510.806 188.348L495.135 150.801L486.187 154.536ZM501.857 192.082L510.592 196.293L525.176 166.039L516.441 161.828L507.706 157.617L493.122 187.872L501.857 192.082ZM516.441 161.828L521.709 153.687L497.971 138.327L492.703 146.468L487.435 154.609L511.173 169.969L516.441 161.828ZM492.703 146.468L501.376 150.804L507.582 138.392L498.909 134.056L490.236 129.719L484.03 142.131L492.703 146.468ZM498.909 134.056L498.873 143.753L540.609 143.908L540.645 134.211L540.681 124.514L498.945 124.359L498.909 134.056ZM540.645 134.211H530.948V145.227H540.645H550.342V134.211H540.645ZM646.808 95.5781L645.064 105.117L645.064 105.117L646.808 95.5781ZM665.427 100.543H675.124V94.258L669.387 91.6914L665.427 100.543ZM665.427 135.297V144.994H675.124V135.297H665.427ZM645.567 135.297L636.968 139.778L639.686 144.994H645.567V135.297ZM632.069 119.161L626.652 127.204L626.69 127.229L626.728 127.254L632.069 119.161ZM601.504 119.161L607.562 126.733L607.573 126.724L607.584 126.715L601.504 119.161ZM591.574 132.97L582.637 129.207L582.609 129.274L582.582 129.341L591.574 132.97ZM591.73 175.171L582.616 178.485L582.625 178.507L582.633 178.53L591.73 175.171ZM603.056 191.307L609.094 183.719L609.094 183.719L603.056 191.307ZM663.41 184.325L671.645 179.205L667.033 171.786L659.174 175.602L663.41 184.325ZM670.547 195.806L676.497 203.463L683.393 198.104L678.782 190.687L670.547 195.806ZM641.999 217.993L644.714 227.302L646.489 226.784L647.949 225.649L641.999 217.993ZM627.725 220.785L626.847 211.128L626.837 211.129L626.827 211.13L627.725 220.785ZM581.024 213.493L585.805 205.057L581.024 213.493ZM559.303 191.772L550.826 196.481L550.837 196.501L550.849 196.522L559.303 191.772ZM563.027 126.608L555.269 120.79L555.264 120.797L555.26 120.803L563.027 126.608ZM591.73 102.25L596.191 110.859L596.206 110.852L596.22 110.844L591.73 102.25ZM624.467 93.2509V102.948C630.134 102.948 636.975 103.637 645.064 105.117L646.808 95.5781L648.553 86.0394C639.679 84.416 631.625 83.5539 624.467 83.5539V93.2509ZM646.808 95.5781L645.064 105.117C653.383 106.639 658.642 108.131 661.467 109.395L665.427 100.543L669.387 91.6914C664.35 89.4382 657.197 87.6207 648.553 86.0394L646.808 95.5781ZM665.427 100.543H655.73V135.297H665.427H675.124V100.543H665.427ZM665.427 135.297V125.6H645.567V135.297V144.994H665.427V135.297ZM645.567 135.297L654.167 130.816C649.825 122.484 644.343 115.643 637.411 111.068L632.069 119.161L626.728 127.254C630.138 129.506 633.656 133.422 636.968 139.778L645.567 135.297ZM632.069 119.161L637.486 111.118C630.848 106.648 623.435 104.344 615.468 104.344V114.041V123.738C619.499 123.738 623.153 124.848 626.652 127.204L632.069 119.161ZM615.468 114.041V104.344C608.018 104.344 601.251 106.917 595.424 111.607L601.504 119.161L607.584 126.715C610.239 124.579 612.781 123.738 615.468 123.738V114.041ZM601.504 119.161L595.447 111.589C589.81 116.098 585.618 122.128 582.637 129.207L591.574 132.97L600.512 136.733C602.496 132.02 604.924 128.844 607.562 126.733L601.504 119.161ZM591.574 132.97L582.582 129.341C579.678 136.539 578.309 144.361 578.309 152.674H588.006H597.703C597.703 146.506 598.713 141.192 600.567 136.598L591.574 132.97ZM588.006 152.674H578.309C578.309 161.835 579.703 170.472 582.616 178.485L591.73 175.171L600.843 171.857C598.792 166.216 597.703 159.855 597.703 152.674H588.006ZM591.73 175.171L582.633 178.53C585.662 186.733 590.418 193.641 597.017 198.894L603.056 191.307L609.094 183.719C605.557 180.904 602.762 177.055 600.826 171.812L591.73 175.171ZM603.056 191.307L597.017 198.894C604.053 204.494 612.533 207.054 621.829 207.054V197.358V187.661C616.231 187.661 612.195 186.187 609.094 183.719L603.056 191.307ZM621.829 197.358V207.054C633.979 207.054 649.514 201.851 667.645 193.048L663.41 184.325L659.174 175.602C641.517 184.175 629.332 187.661 621.829 187.661V197.358ZM663.41 184.325L655.174 189.444L662.311 200.925L670.547 195.806L678.782 190.687L671.645 179.205L663.41 184.325ZM670.547 195.806L664.596 188.149L636.048 210.336L641.999 217.993L647.949 225.649L676.497 203.463L670.547 195.806ZM641.999 217.993L639.284 208.684C634.842 209.979 630.701 210.778 626.847 211.128L627.725 220.785L628.603 230.443C633.851 229.965 639.226 228.902 644.714 227.302L641.999 217.993ZM627.725 220.785L626.827 211.13C622.725 211.512 618.168 211.709 613.141 211.709V221.406V231.103C618.664 231.103 623.829 230.887 628.623 230.441L627.725 220.785ZM613.141 221.406V211.709C602.491 211.709 593.473 209.402 585.805 205.057L581.024 213.493L576.243 221.93C587.193 228.135 599.586 231.103 613.141 231.103V221.406ZM581.024 213.493L585.805 205.057C578.012 200.641 572.051 194.666 567.757 187.023L559.303 191.772L550.849 196.522C556.898 207.29 565.418 215.796 576.243 221.93L581.024 213.493ZM559.303 191.772L567.78 187.063C563.492 179.344 561.242 170.445 561.242 160.121H551.545H541.848C541.848 173.38 544.771 185.582 550.826 196.481L559.303 191.772ZM551.545 160.121H561.242C561.242 150.235 564.317 141.079 570.794 132.414L563.027 126.608L555.26 120.803C546.428 132.618 541.848 145.804 541.848 160.121H551.545ZM563.027 126.608L570.784 132.427C577.675 123.239 586.12 116.078 596.191 110.859L591.73 102.25L587.268 93.6399C574.584 100.213 563.893 109.291 555.269 120.79L563.027 126.608ZM591.73 102.25L596.22 110.844C606.658 105.39 616.033 102.948 624.467 102.948V93.2509V83.5539C612.214 83.5539 599.763 87.1108 587.239 93.6552L591.73 102.25ZM775.224 218.303V228H781.217L783.897 222.64L775.224 218.303ZM736.436 218.303H726.739V228H736.436V218.303ZM736.436 204.805H746.133V184.824L730.436 197.187L736.436 204.805ZM718.904 218.613L722.506 227.617L723.805 227.097L724.904 226.231L718.904 218.613ZM688.184 212.252L680.976 218.739L681.045 218.815L681.114 218.889L688.184 212.252ZM684.771 181.532L693.067 186.553L693.095 186.506L693.123 186.458L684.771 181.532ZM695.166 170.361V160.664H691.934L689.348 162.604L695.166 170.361ZM736.436 170.361V180.058H746.817L746.111 169.702L736.436 170.361ZM731.782 160.121L725.494 167.503L725.574 167.572L725.656 167.639L731.782 160.121ZM689.891 163.069L681.019 166.983L684.526 174.932L692.811 172.316L689.891 163.069ZM685.236 152.519L679.165 144.957L673.359 149.62L676.364 156.433L685.236 152.519ZM706.492 135.452L703.326 126.287L701.734 126.836L700.421 127.891L706.492 135.452ZM756.916 141.038L750.872 148.62L750.906 148.647L750.94 148.674L756.916 141.038ZM767.622 200.461H757.925V207.067L764.073 209.485L767.622 200.461ZM781.43 205.891L790.103 210.227L794.844 200.746L784.979 196.867L781.43 205.891ZM736.436 188.979L741.34 197.345L746.133 194.535V188.979H736.436ZM736.436 182.928H746.133V173.231H736.436V182.928ZM712.853 182.928V173.231H707.148L704.377 178.219L712.853 182.928ZM711.767 185.411L720.967 188.477L721.033 188.277L721.091 188.075L711.767 185.411ZM713.784 192.548L708.05 200.368L708.169 200.455L708.291 200.539L713.784 192.548ZM775.224 218.303V208.606H736.436V218.303V228H775.224V218.303ZM736.436 218.303H746.133V204.805H736.436H726.739V218.303H736.436ZM736.436 204.805L730.436 197.187L712.904 210.995L718.904 218.613L724.904 226.231L742.436 212.423L736.436 204.805ZM718.904 218.613L715.303 209.61C714.734 209.837 713.466 210.158 711.147 210.158V219.854V229.551C715.033 229.551 718.937 229.044 722.506 227.617L718.904 218.613ZM711.147 219.854V210.158C701.897 210.158 697.412 207.914 695.254 205.615L688.184 212.252L681.114 218.889C688.472 226.727 699.295 229.551 711.147 229.551V219.854ZM688.184 212.252L695.392 205.765C692.41 202.452 690.899 198.586 690.899 193.634H681.202H671.505C671.505 203.163 674.649 211.709 680.976 218.739L688.184 212.252ZM681.202 193.634H690.899C690.899 191.458 691.5 189.141 693.067 186.553L684.771 181.532L676.475 176.511C673.284 181.784 671.505 187.535 671.505 193.634H681.202ZM684.771 181.532L693.123 186.458C694.729 183.735 697.242 180.925 700.984 178.119L695.166 170.361L689.348 162.604C683.988 166.624 679.57 171.261 676.418 176.606L684.771 181.532ZM695.166 170.361V180.058H736.436V170.361V160.664H695.166V170.361ZM736.436 170.361L746.111 169.702C745.67 163.23 743.305 157.002 737.907 152.604L731.782 160.121L725.656 167.639C725.844 167.791 726.582 168.39 726.762 171.021L736.436 170.361ZM731.782 160.121L738.07 152.739C733.254 148.637 727.397 146.856 721.231 146.856V156.553V166.25C723.548 166.25 724.724 166.848 725.494 167.503L731.782 160.121ZM721.231 156.553V146.856C712.538 146.856 700.913 149.419 686.971 153.822L689.891 163.069L692.811 172.316C706.382 168.03 715.651 166.25 721.231 166.25V156.553ZM689.891 163.069L698.763 159.155L694.108 148.605L685.236 152.519L676.364 156.433L681.019 166.983L689.891 163.069ZM685.236 152.519L691.307 160.08L712.563 143.013L706.492 135.452L700.421 127.891L679.165 144.957L685.236 152.519ZM706.492 135.452L709.658 144.618C714.059 143.097 719.758 142.201 726.972 142.201V132.504V122.807C718.257 122.807 710.302 123.876 703.326 126.287L706.492 135.452ZM726.972 132.504V142.201C738.476 142.201 746.029 144.76 750.872 148.62L756.916 141.038L762.961 133.455C753.529 125.937 741.12 122.807 726.972 122.807V132.504ZM756.916 141.038L750.94 148.674C755.253 152.05 757.925 157.168 757.925 165.707H767.622H777.319C777.319 152.524 772.853 141.196 762.893 133.401L756.916 141.038ZM767.622 165.707H757.925V200.461H767.622H777.319V165.707H767.622ZM767.622 200.461L764.073 209.485L777.881 214.915L781.43 205.891L784.979 196.867L771.171 191.436L767.622 200.461ZM781.43 205.891L772.757 201.554L766.551 213.966L775.224 218.303L783.897 222.64L790.103 210.227L781.43 205.891ZM720.611 194.254V203.951C727.565 203.951 734.576 201.31 741.34 197.345L736.436 188.979L731.532 180.614C726.298 183.682 722.759 184.558 720.611 184.558V194.254ZM736.436 188.979H746.133V182.928H736.436H726.739V188.979H736.436ZM736.436 182.928V173.231H712.853V182.928V192.625H736.436V182.928ZM712.853 182.928L704.377 178.219C703.635 179.554 702.918 181.085 702.443 182.747L711.767 185.411L721.091 188.075C721.055 188.202 721.038 188.226 721.078 188.134C721.117 188.045 721.195 187.881 721.33 187.638L712.853 182.928ZM711.767 185.411L702.568 182.344C701.897 184.356 701.76 186.349 701.76 187.893H711.457H721.154C721.154 187.687 721.165 187.633 721.157 187.7C721.149 187.756 721.111 188.043 720.967 188.477L711.767 185.411ZM711.457 187.893H701.76C701.76 192.869 703.945 197.357 708.05 200.368L713.784 192.548L719.519 184.728C719.848 184.969 720.338 185.447 720.712 186.194C721.082 186.934 721.154 187.572 721.154 187.893H711.457ZM713.784 192.548L708.291 200.539C712.179 203.212 716.718 203.951 720.766 203.951V194.254V184.558C719.857 184.558 719.322 184.469 719.073 184.408C718.836 184.35 718.97 184.346 719.278 184.557L713.784 192.548ZM720.766 194.254V184.558H720.611V194.254V203.951H720.766V194.254ZM826.487 192.238L820.558 199.911L820.75 200.059L820.95 200.198L826.487 192.238ZM815.471 185.101L820.41 176.756L820.381 176.738L820.351 176.721L815.471 185.101ZM795.302 147.554L788.103 141.057L788.103 141.057L795.302 147.554ZM809.265 136.848L804.802 128.24L804.769 128.257L804.736 128.274L809.265 136.848ZM844.485 134.366L842.912 143.935L842.976 143.945L843.04 143.955L844.485 134.366ZM860.931 138.245H870.628V131.825L864.718 129.318L860.931 138.245ZM860.931 165.241V174.938H870.628V165.241H860.931ZM848.829 165.241L840.41 170.052L843.202 174.938H848.829V165.241ZM839.675 155.001L834.039 162.892L834.114 162.946L834.191 162.999L839.675 155.001ZM825.246 152.364L818.389 145.507L818.161 145.735L817.948 145.978L825.246 152.364ZM827.728 160.742L821.752 168.378L821.934 168.521L822.123 168.655L827.728 160.742ZM839.365 168.034L834.448 176.392L834.501 176.423L834.554 176.453L839.365 168.034ZM857.983 180.446L864.208 173.011L864.208 173.011L857.983 180.446ZM858.759 204.96L865.789 211.639L865.83 211.595L865.871 211.552L858.759 204.96ZM844.33 215.51L848.729 224.152L844.33 215.51ZM807.248 218.148L805.81 227.738L805.869 227.746L805.927 227.754L807.248 218.148ZM789.406 214.114H779.709V220.679L785.805 223.117L789.406 214.114ZM789.406 185.566V175.869H779.709V185.566H789.406ZM801.508 185.566L809.838 180.603L807.018 175.869H801.508V185.566ZM812.213 197.047L806.88 205.146L806.88 205.146L812.213 197.047ZM828.504 199.995L822.446 192.423L822.25 192.58L822.062 192.747L828.504 199.995ZM830.056 196.892H839.753C839.753 193.397 838.301 190.624 836.859 188.742C835.438 186.889 833.679 185.428 832.025 184.277L826.487 192.238L820.95 200.198C821.674 200.702 821.699 200.844 821.468 200.542C821.215 200.213 820.359 198.939 820.359 196.892H830.056ZM826.487 192.238L832.416 184.564C829.644 182.423 825.545 179.794 820.41 176.756L815.471 185.101L810.533 193.446C815.535 196.406 818.779 198.536 820.558 199.911L826.487 192.238ZM815.471 185.101L820.351 176.721C812.415 172.1 806.582 168.125 802.629 164.801L796.388 172.223L790.147 179.645C795.296 183.975 802.185 188.585 810.592 193.48L815.471 185.101ZM796.388 172.223L802.629 164.801C799.613 162.265 799.258 160.534 799.258 159.501H789.561H779.864C779.864 167.777 784.061 174.527 790.147 179.645L796.388 172.223ZM789.561 159.501H799.258C799.258 159.178 799.453 157.428 802.501 154.051L795.302 147.554L788.103 141.057C783.496 146.162 779.864 152.376 779.864 159.501H789.561ZM795.302 147.554L802.501 154.051C805.504 150.722 809.232 147.833 813.795 145.422L809.265 136.848L804.736 128.274C798.335 131.656 792.753 135.904 788.103 141.057L795.302 147.554ZM809.265 136.848L813.729 145.457C818.398 143.036 821.973 142.201 824.625 142.201V132.504V122.807C817.968 122.807 811.304 124.869 804.802 128.24L809.265 136.848ZM824.625 132.504V142.201C829.643 142.201 835.716 142.752 842.912 143.935L844.485 134.366L846.058 124.797C838.152 123.498 830.986 122.807 824.625 122.807V132.504ZM844.485 134.366L843.04 143.955C850.447 145.071 854.914 146.226 857.144 147.172L860.931 138.245L864.718 129.318C860.121 127.368 853.624 125.937 845.93 124.777L844.485 134.366ZM860.931 138.245H851.234V165.241H860.931H870.628V138.245H860.931ZM860.931 165.241V155.544H848.829V165.241V174.938H860.931V165.241ZM848.829 165.241L857.248 160.43C854.142 154.994 850.144 150.422 845.159 147.004L839.675 155.001L834.191 162.999C836.447 164.545 838.551 166.8 840.41 170.052L848.829 165.241ZM839.675 155.001L845.311 147.11C840.374 143.584 834.773 141.425 828.659 141.425V151.122V160.819C829.993 160.819 831.735 161.246 834.039 162.892L839.675 155.001ZM828.659 151.122V141.425C825.287 141.425 821.447 142.449 818.389 145.507L825.246 152.364L832.103 159.22C831.48 159.844 830.749 160.286 830.034 160.546C829.355 160.793 828.85 160.819 828.659 160.819V151.122ZM825.246 152.364L817.948 145.978C815.477 148.802 814.463 152.2 814.463 155.467H824.16H833.857C833.857 155.794 833.808 156.324 833.584 156.963C833.354 157.62 832.995 158.234 832.544 158.749L825.246 152.364ZM824.16 155.467H814.463C814.463 161.836 818.853 166.109 821.752 168.378L827.728 160.742L833.705 153.105C833.003 152.557 832.929 152.364 833.084 152.593C833.269 152.867 833.857 153.876 833.857 155.467H824.16ZM827.728 160.742L822.123 168.655C824.954 170.66 829.123 173.259 834.448 176.392L839.365 168.034L844.281 159.676C839.057 156.602 835.468 154.341 833.333 152.829L827.728 160.742ZM839.365 168.034L834.554 176.453C842.27 180.863 847.929 184.675 851.758 187.881L857.983 180.446L864.208 173.011C859.142 168.769 852.388 164.307 844.176 159.615L839.365 168.034ZM857.983 180.446L851.758 187.881C854.658 190.309 854.957 191.932 854.957 192.858H864.654H874.351C874.351 184.682 870.203 178.03 864.208 173.011L857.983 180.446ZM864.654 192.858H854.957C854.957 193.248 854.743 195.028 851.647 198.368L858.759 204.96L865.871 211.552C870.636 206.41 874.351 200.122 874.351 192.858H864.654ZM858.759 204.96L851.728 198.281C848.641 201.531 844.753 204.414 839.93 206.869L844.33 215.51L848.729 224.152C855.284 220.814 861.015 216.664 865.789 211.639L858.759 204.96ZM844.33 215.51L839.93 206.869C835.159 209.297 831.457 210.158 828.659 210.158V219.854V229.551C835.378 229.551 842.122 227.515 848.729 224.152L844.33 215.51ZM828.659 219.854V210.158C823.235 210.158 816.562 209.64 808.569 208.541L807.248 218.148L805.927 227.754C814.484 228.931 822.085 229.551 828.659 229.551V219.854ZM807.248 218.148L808.687 208.558C800.509 207.331 795.513 206.113 793.007 205.11L789.406 214.114L785.805 223.117C790.539 225.011 797.438 226.482 805.81 227.738L807.248 218.148ZM789.406 214.114H799.103V185.566H789.406H779.709V214.114H789.406ZM789.406 185.566V195.263H801.508V185.566V175.869H789.406V185.566ZM801.508 185.566L793.177 190.529C796.736 196.503 801.282 201.46 806.88 205.146L812.213 197.047L817.546 188.949C814.663 187.049 812.072 184.352 809.838 180.603L801.508 185.566ZM812.213 197.047L806.88 205.146C812.342 208.743 818.356 210.933 824.78 210.933V201.236V191.539C822.93 191.539 820.566 190.937 817.546 188.949L812.213 197.047ZM824.78 201.236V210.933C828.101 210.933 831.834 210.009 834.946 207.243L828.504 199.995L822.062 192.747C822.627 192.245 823.247 191.914 823.809 191.727C824.341 191.549 824.702 191.539 824.78 191.539V201.236ZM828.504 199.995L834.562 207.567C837.719 205.042 839.753 201.299 839.753 196.892H830.056H820.359C820.359 196.12 820.531 195.189 820.995 194.262C821.449 193.354 822.027 192.759 822.446 192.423L828.504 199.995ZM931.772 218.613L933.629 228.131L935.944 227.679L937.793 226.215L931.772 218.613ZM893.294 213.183L886.742 220.331L886.783 220.369L886.824 220.406L893.294 213.183ZM885.847 151.278H895.544V141.581H885.847V151.278ZM869.091 151.278H859.394V160.974H869.091V151.278ZM869.091 141.813L862.076 135.118L859.394 137.929V141.813H869.091ZM904.776 104.422V94.7248H900.626L897.761 97.7269L904.776 104.422ZM916.877 104.422H926.574V94.7248H916.877V104.422ZM916.877 138.71H907.181V148.407H916.877V138.71ZM944.805 138.71H954.502V129.013H944.805V138.71ZM944.805 151.278V160.974H954.502V151.278H944.805ZM916.877 151.278V141.581H907.181V151.278H916.877ZM935.03 198.288L937.028 207.777L937.206 207.74L937.382 207.696L935.03 198.288ZM942.788 195.651L951.66 191.737L947.88 183.17L939.186 186.647L942.788 195.651ZM947.442 206.201L953.463 213.803L959.341 209.147L956.314 202.287L947.442 206.201ZM931.772 218.613L929.915 209.096C926.443 209.773 922.126 210.158 916.877 210.158V219.854V229.551C923.006 229.551 928.62 229.108 933.629 228.131L931.772 218.613ZM916.877 219.854V210.158C907.125 210.158 902.137 208.085 899.765 205.96L893.294 213.183L886.824 220.406C894.382 227.176 905.116 229.551 916.877 229.551V219.854ZM893.294 213.183L899.847 206.035C897.58 203.957 895.544 200.045 895.544 192.238H885.847H876.15C876.15 203.256 879.079 213.306 886.742 220.331L893.294 213.183ZM885.847 192.238H895.544V151.278H885.847H876.15V192.238H885.847ZM885.847 151.278V141.581H869.091V151.278V160.974H885.847V151.278ZM869.091 151.278H878.788V141.813H869.091H859.394V151.278H869.091ZM869.091 141.813L876.106 148.508L911.791 111.117L904.776 104.422L897.761 97.7269L862.076 135.118L869.091 141.813ZM904.776 104.422V114.119H916.877V104.422V94.7248H904.776V104.422ZM916.877 104.422H907.181V138.71H916.877H926.574V104.422H916.877ZM916.877 138.71V148.407H944.805V138.71V129.013H916.877V138.71ZM944.805 138.71H935.108V151.278H944.805H954.502V138.71H944.805ZM944.805 151.278V141.581H916.877V151.278V160.974H944.805V151.278ZM916.877 151.278H907.181V189.445H916.877H926.574V151.278H916.877ZM916.877 189.445H907.181C907.181 194.817 909.019 200.341 913.929 204.181C918.387 207.667 923.947 208.606 928.979 208.606V198.909V189.212C927.563 189.212 926.653 189.07 926.131 188.934C925.624 188.802 925.637 188.717 925.877 188.905C926.165 189.13 926.419 189.466 926.554 189.783C926.664 190.042 926.574 190.004 926.574 189.445H916.877ZM928.979 198.909V208.606C931.699 208.606 934.386 208.334 937.028 207.777L935.03 198.288L933.033 188.799C931.744 189.071 930.397 189.212 928.979 189.212V198.909ZM935.03 198.288L937.382 207.696C940.044 207.03 943.08 205.978 946.389 204.654L942.788 195.651L939.186 186.647C936.29 187.806 934.154 188.512 932.678 188.881L935.03 198.288ZM942.788 195.651L933.916 199.565L938.57 210.115L947.442 206.201L956.314 202.287L951.66 191.737L942.788 195.651ZM947.442 206.201L941.421 198.6L925.751 211.012L931.772 218.613L937.793 226.215L953.463 213.803L947.442 206.201Z" fill="white" mask="url(#path-6-outside-1_32_772)"/>
</svg>
